<mxfile host="app.diagrams.net" agent="Mozilla/5.0 (Windows NT 10.0; Win64; x64) AppleWebKit/537.36 (KHTML, like Gecko) Chrome/129.0.0.0 Safari/537.36" version="24.8.3">
  <diagram name="Page-1" id="2YBvvXClWsGukQMizWep">
    <mxGraphModel dx="1588" dy="-7816" grid="1" gridSize="10" guides="1" tooltips="1" connect="1" arrows="1" fold="1" page="1" pageScale="1" pageWidth="850" pageHeight="1100" math="0" shadow="0">
      <root>
        <mxCell id="0" />
        <mxCell id="1" parent="0" />
        <mxCell id="nctrB8vf493KiRFq7X1_-1" value="MODELO FUNCIONAL DE SECUENCIA - PLARD / ATM : CONSULTA DE DATOS DE TARJETA DEL CLIENTE" style="rounded=0;whiteSpace=wrap;html=1;align=center;fillColor=#FFFFFF;strokeColor=default;fontColor=#000000;fontSize=16;fontStyle=1;labelBackgroundColor=default;" parent="1" vertex="1">
          <mxGeometry x="40" y="9503" width="1760" height="79" as="geometry" />
        </mxCell>
        <mxCell id="nctrB8vf493KiRFq7X1_-2" value="&lt;img alt=&quot;&quot; src=&quot;data:image/png;base64,iVBORw0KGgoAAAANSUhEUgAAAOgAAABXCAYAAAAONQnYAAAAAXNSR0IArs4c6QAAAARnQU1BAACxjwv8YQUAAAAJcEhZcwAAFxEAABcRAcom8z8AACX3SURBVHhe7Z0JmBTVtcdPL9N797BIFEWFqIiAskgU0IggGiMvbhF5aDQmrnFHBBVRjGwSQEUNboDGGBeeu2ERVBCVXYFhBGbt6a7uWnudGTZR6v1PTzEOAwPTQ4+A1P/7zlfLPXWreub++pxbdes2mTJlypQpU6ZMmTJlypQpU6ZMmTJlypQpU6ZMmTJlypQpU6ZMmTJlqokqpEKH1lrz89LYZcpU47WI+tkjdHlrJW9wd9l2zcCY/U9nB+nPLqPYVHayhNzasUGvcH4ooFwUDqhDQ375CSxfLW4h9jN8TJnat3Qia4L+51zZdtk/ZPvlMyT7Ve/K9qvXxB3XKJrjmk9C7r8ea7iaykLlPvG8cL48N+xXhEhAVYSAmhQCmi600PTyFsr1hpspU/tWMV0cSNove3tb3mA9lXeVnswboicdQ/Wtjj/riuPabyOuIccbrqayUIU3ckesRVrX8lO6lB/XRZiUn9RD+cqOsoB8reFmytS+FaberZL2yxdsB6BS3hW6DEhlxxA95fgTltesFNzXtjNcTWWhoC9yWzRf1dlC+RJM1iP5MT2cr243ATXVaIXo3JYp++VztgBME9DcyQTUVE5kAto8MgHNocJErXYSOY3NI0omoM0jE9DcyKIRdUoRvRIjegTrfmP/ESMT0ObRoQCoTrqlhOLHl5PYr5SUK8spenMpSSNLKPo7w+XQVoioZZzo/R/xWdJE25JEY3Uij1F8RMgEtHl0MAEtoIKjyylyaTlJU2ELg6SUV5CaCpG2TaSkXkryDMP10JZE5E0QPQE4t+wApAB0G6Lok9j/K8PlFy8T0OZRuU+4+ecGtJCiJ4QpdiPsgyDJ8Shg1GiLrlC1HqW0HiRNj1AyFSR1snHIoa8oIqaK9BaRdPP3NZDuBKQzKomOMlx+VhUSOYrJ1yZJ+R0k8nZVKb9nglr8VqWjB6l0zCUqHTdIoXa/i1GHs2TqeEaSOnYoo1/nG4dnreYENEzD3FHXAydIeaO7iPZxvWTn+Askx7hBomPCJYJj4qCoc8rvZPvU3pG8p7qLjmmdo64XT9BaT/JzamZU0WjxMWvpNa/qmdc24pjTUfDOPUN0L+gV8i4cKHgWDBI8n11SY58PCjm/uEjwL+8d8XzdI0iLWhhV7FeraXVekbvoONFX3DnqKekZ8hah7tJBFbAST/BiwS30rvCJncu8ZUeHvMI9kXxl588BaOa6SBoUInVeiGJbGEoVUCK1rS4lcR1sZhlFH0I0vXsjRa8JkdTFOPTwUJDIBSiHA84ER1JE1B8B7CyA29ZwaRYhnbag/9syRo7TFHJcmbQ67k9Y3FNiFu+HmiWwVrO0KNIsrUtVy1EhzXqMpFmPhbWTFGt7UbF2KFetp5Ro1o7fqrZOryfsXR9Sbd1/L1PXo43qG6VcA6rRCL9oH9VLcT5yu+p49J+i49Gvo67HiqOux8uirrGRqGucHHVNlKKuSbApYsT9ZDDqfrok6p5WFHE9u0JxPz9T9bw0OuT65/WC5/luwfxX9gqQTrNtQc/sYyT3e2eJrnevlz0fjZa9/50e8Xz8ueCdsyHsnVsc9s4vE3wLImHfAlnwfSYJvs9hi6Wwd0lU8H1VEfZ9XSx4ll1iVLlXLaJF9gpfYeewf+NfooHiyYK3aHHIt6m4wl9UGvKXRcL+MinsL5dC/qAY8oeCwfxQcUVA+CIciH4dzpd+EABmcwJaSOFWxRQZgzRWZihV2oxIqcbKSX4TgF5XSsIpG2nj4X9vZTaRDenuHTCNIynAQXpAb8NONVxyLpnoaHwZPFtNlpVxylMSFtePKYtHr7T49CpLPqwVrA22f6WnrW1h7WAnwDrATtIrrR1hnfSUrbMet3XdmbB1E+LW7h+K1h7DZGevXxun2adyBWgh3e6THCMGq46Rr2jOh9cprtFbY64xetw1Vk+4JmA5QY+5n4BNgk3WNfdTsGlYf06Pu6fDntfjnhd1wKnLnpd2iu6X0gnXa99G3bPGLaIx9pqz/KRyx79PVT3vvR7zfFQY9bxXKXk/2ql45+iad76u+T7NmOpbpCu+xYZ9CfsathS2XE/4v9GlwAo95P1qiFFlfVkirvV9BV/BP8RA8fKof1OVHCjRlUCFrgbCWIZ1OSDAIqhHzJgckHWlhZaxSAZK0bDmATREm48FmC/AdnDURFq7HWC+i0h5dZCSjc4MDhvxuFSF6IYYuqcM6WYY1ucB0k6GS07F9eKLIKSTVa8kh560uPQEAI0BUA2AapaWsKNgbXREUNhxsONh7XXV+mvYKbBT9ZjtNAZUT9u66VW2M/WE7cztMduZSzQ6+9LZNNhmnG6vygWgSt493SXH8JdVx4hYwjVKT7oe0VXXaF3GUnI9qouuv8Me10X3ONgE2BN6FJBG3VNhT8OmwZ7Ro57ndMnzPAMKUGfp27xv6RHPzBU6vbLHgP2g8/X+iuedZLV3nq54P9YBqC7Cot7/6oJvDmwu7BPYQsM+hy2GfQH7Upf9y/WIf1la8C/7vVFlrYL5a1qEvOvviXrXF0v+TboWKAOAxXoksEkXsAxnrARWBivXQ4C2xkIAUQCEEVi0WQEtoLKjS0l6LUxxtNGtgFOJlZH04Foq/eXfPwE41wCciu0/Qfq5RHS2UZwzcXRGxC7ZAkCR5gJMF8wDIGsATQDQJABNAdAUAE0hgqYQQZMANA5ANQNQFYCqti6wM2A99CQgrbadBVB7C6K9z/0SXeg1TrmHDhRQ1XHvoLhz+IqEc4SecD4IKB8AjA/CRsFGwx7Fvsd1xTUOEXMCbBJssq66n4Q9rSvuZ3UZtgvQqGc67AXYS3rS+5oueGZ8uTdAw67/9BM9/6do3g/1iPd92AcwXv9YjwBOEXBKiKIyomiNLYF9BfsatkxP+tegfEVJifez3fpjUdfqE6Legumif/1mLVCkR/0bAOF3MF6yFQHSEj0KMEUAKSGSioFoxqKwCIAUAGdzAlpMYhtEyplhiukyVeoVpFYA1r+MoTFWw+WXL6Sfl6MfuokhZcP6ylxDyoCi31u8D0B/SFhabUEUTSGCauiDyoig8bi1fWXM2mFHGilulfU0gNh5N0BVW09YL73K3ldP2PtUadbetxqn3EMHAqhsu/0C1XF3SbVzpK4679clmOgaWQuoAjgTSHFjgBOAfi+7xqdF13gNfVAl4vpHPOKamhRd06oB6fcNAzpzSUOASp535L0DOm+n6Jv/fcS3sFrwfpIMexdq3AcN+xYpgndxXPAtSWr+Vdtk36pPiml5wKiSYq2WB0TvupkKoGQL+wtg62sB5Qiq5iPFzQ9hvfyHiD9YhX5oHNFTrghUaGF/OB0NiNujADKa6Xs2D6BIZe8TKPFjDGktQA0D2KuMoiNLAGgAwFyxDYBuhSHarUQ0vdAoPmA1BGjK4gegATlOLR+LU+BWjVpfF6djBmvU9nKVjh2i0gk3Is0dGbecMiNpPXVFzNZpWyVSXK0eoIr9bEB6LlLgvmWa7ZzzjdPupqYCKuXd1EV03Lm8ElDKzmGA877dAI1l0ttHdqiux1ZKrr+/gCg6POIc+xfJPXFw2DHxCsk1+eqoa8q1Uee0myTns49HnM9qSgbOAwNU8c1D9Jy3TPTOuy/qWXBT2Dv/WtH36VUh9+eXBd2fXRnxfj6kwrvkT2Hfktsj/pXoAszOdAF00m0R37ePSIH1O2Q/gPSv3Q1QKRM1S7As3RDxl/8n5Ct5OOwruykcKP3foK/0ipAvNDjkD90Q8gv3IsV9IuSPruQbROEMqLkDtIQifUKklXNaGyK1EoDebBQdmQKQZ8FWMqBGJC0CWJcbxQekhgDdDEBjFv+3q6ntPgdNKNTGF6OTO2vWjiM1a+fSSgAaqweoau+jV9vP0zX7uXNidFZttNilpgBaSIMdkuNvL6UBpuK8F2Cy1QAqIcWNM5zOUQLS20fkvJGnR2nMfj7HP46JOp8p4ptEBwpoEv1NyffJ04Zbo1XhXD5A8K6Oa5zGZuD8CVAFfU7BvxH91aLnBX9x74L8gpbGYQ0qCFD5EUskh49ZFlHQVU7S63ynltPbMlKeX0pht1F85Aog9YJ9xZDyzSNE0nKF6IDTiv0BupaObrDvWFf8uEaiLv3j1q7LqwGnBlMMQBUAmkAUVey/3Spb+w01DqlVUwCV7bf0UR23y6kMmHfXART9UNfDgPahCsHx0FX7u0G1SzGaehwALc4VoEqWgBbSbJ/gW/1GHJFSQN+0LqAy0tpIYKOCFPfOKEUbPcqsOQYqlJE8EH3NJA88KCNpY5C0Zrl5eVgKfdIzAOaCaiOSptBGVKIbxxA1uWO+P0A3Uuusnl8p9u5949YewWqGsw6gqv0cpLrnY/38t9fWu2HUFEDVvNsmpQGm4rxrN0Djzgd1xfGAEHU8cIXh2ihFaMrxuQV0wTS4NHqwQ8S1ok/Ut1pRMxHz21pAo0h1xcCGbYJ/wzCkwFn9n3M91I/Pj+g5XaJKHg2kV5A82igytUsC0SlIcd+pxN+LBzRgPQZIb0IEa1SkqK9cA8rSrN1Gpm09d8Rtv6kFVAGglQA0bhsQVGlAT8M1o2wBFdw3tVMdt62qdt4DKO+sBVR2DtdjzgdQx4jHDddG62ADKnhXDdP86/SI/5vdANWQ2oZ8hfPX0JqsnynmGtBiEtqh77k6RTt4IELpJhLOMIpM1VWE6HiAOZMHMhjproJ0d0SYKOu+QHMAGqZux8WsPQsr6wGaAqAJe//qsO283aJbtoCGbTderDpu3RrLwPkToAnnSETUEd9F6L6OhmujdTAB5bRV9K1+Kx4oBJSrawEV/YUAtgDRc/11NZ7ZKdeABkk6H/1OrYp+1AWKvTGbZpszAzYkQNoacM0AXD8ag+yrAe3jPK7XcGmUmgNQlmrp+QwDqtp71wIas/cDoAN2Stb+Iwy3jLIFVLTfeGvSeTtgvH03QKucD+mxvBHTm/Is7mACKrq+PjHiXbFRy6S3PwGqcd/TX1BYcdSGJg33zDWg6HPeIVDihyildKS6Dxi7TTWkNCBFevscImgGUqS9WwDbTUZxo9RsgFp7DEkAUK0OoKr9PH2L/UI9aRvIjbdW2QDK03KKeTc9zYDKdQBVnMN0zXn/Tskx/G7DNSsdTEBD7hW95Ez/c109QIsA6PolhZ2bNodtjgG1lJP6bJK+18MUry6myB+M/ab2pSBRC0D6BCBL8DulVUQreZ9RvF81F6CyrccF3AetC6gCQLcD0CrbwBfhUtt4swE0RtcGFPvNc9IAsy6g8Uz/c3il6Bixz4HnDemgprjeZRcixU3KmX5nDaACYJX9G7AseFlv4uicXALKb6sIFH+9mvTM62JFJDbp73xEivueAG22DkDRL42gP3qSUbRfNVsEtff8rWbrtQegWwFoyjZwRt3HH9kAGqWhR2mOW1ZUAkzR+bd6gI6IKa77zjVcs9LBBFTyrPgf0beqUs48XqkBFKkt90F3Rn2FDxpuWSuXgM6lYqdAyTeqaCf6n4k0v1pmFJnan9D3vBpp7iaOoAC0CFG00YOVmwtQxX7mOTxQoT6g2wBo2nbhy3X7idkBegsAvXV1fUATzvsZUC3iuq+v4ZqVDiagEffSPzQEaMT/3W799WyU2wiq54mURgStAbTUjKCNk0w0FIBJ3Afl4YAA9El+I8Yo3q+aL4L26hfbC6Cc4qZtA18w3DLKNoIqjltXMaDSboAO5z5oLHoYRtBQA4BKmeF+BeMNt6yVS0DHkG4NkvZyJf2ghyhWZQK6H/G7o2miGwCXzI9aEDX5Je//ixEdZ7g0Ss3YB700vgeg/fQt9oF6wnbBU4ZbRtn2QeW8m+dxH1Sq1wfVnMNTUef9FxmuWelg90El3+pE/T6o6ucRROvf4zG6hmtWyvFNIiql8Ej0P3dGKPFDkMS/GbtN1RcipEMluhfRMvUDNgEYD1iYiX1Z345vthTX2v2hVL3HLHH7+XrMPuDHqLX/XYZbRtkAyn1X0XbzU/Xv4qrOYbDhP0Sdw5o0cPtgAiraV/QSfd8oamDPu7hRf+FKpU2hz3DNSrkGtJxCF4UplkxnnoPGZ+0a5G+qjlYTeRAlRwGqSoYTUXMHIJsWbeL8Rc0BaJBOdGnWHgurAGj9gQpJe/+0aBuw2wvK2QDKkvNuuSUBOOs+B5WN56Ba3sgn4dIoMOrqYAK60bmovehducdz0Jo3WtZrFd5vLjBcs1KuAS2m0ElBUr9L16S5a3jbKDLF2kjkTxBNBZSZGQARQXkGwPEKUZO+YVnNASjPS5Sw9Uwm6wFaae+vx239N4g0oLPhmlG2gIq2Gy9RHLdt1zJw1gDKAxVSmXG4968S3CN382+MDiagq2m1B33QN+P+3UcSRTjNrXkW+iLPS2S4N1q5BpQftQRJeo3nHQqR9mMFKXcaRaaKiQIMJ6DcyZETyy0cSbH/gGajzzWgGp3qT1i7v7+V+5+wXYDyYHkeiyvbzp+p05l5hntG2QIq0Z/bq47b1lbVG4vLL2yrzhE7ZPvIBl8Ob0gCTWt3sABlyd5v7+EUt/5YXMm/Efu+U4L+gqxvyuQaUFY5qUPKSd6mUJVeSuKKDVTRrJPaHRbiOXLRx5yOyPkj3xDCMgVYR6EvultDb4r2B2ghtWl0dA5Stxaq5fSJSVv3HQnbmXu8bqbaf1slU7893mPNFlB+cI8091kGVK4DKL/NkuQo6nxgXcg+qpfh3iiV0dNHA9CcvQ+aLaCCe3lvwbdKUfnl7DqA8utm/C5oJLDxCzGwMavPVO4Tbs01oDwRGACdy++DVpC6A5COaepNrF+EACYPjP83v2Jm3BBSkdLevogo65Rnb9oPoN8sQn/ScG1Q/LqbnNfxDM3WZWbMdsb2ZAMvbKvWc9/Z29xE2QLKEmw399ccd8aSGTB/AlTJvA86ShedDy2Luh46x3DfpxR6zhfJm3KD6HomrnqePyiAhmmpW/Cuejnh34CIufv7oAJSX54wTPBv+jbs/+6voq+4jXHYPlXhC98o5hhQVgmJF1eQFuMZFQCpAmAvNYqOLAHEkwFn5tUyI62NACh+s6HR//j9qSFAK2sADWrU4lqFWvaV6OgOFXRCW4VOPCYIi1G741Q6sYdmO+lyzdJpnGbttDZh66onbd0AZvcMoLsiaGXmDu45ZQnqc55x2t3UFEDDdJVbcdz+70rnMERRTnV3vbB9f2bSsLhrtB51jlofc4+5W8gbc0apd8yvIv4JrYtbjQmk8ie2zGw7JnQU3VP/KLqfmiW6pikSTxyWgzmJmgIoq9S9olfU921RDGltXUB5RgVEUETSMsC7KSUEit8PBzbdHvGWXrDJV9BpY+uNxwY9wWMKYRs8FW2D+cH2FfkVPUP+yDORfAVQKjkFlPui6H9OlSi9s2ZyanklImlW0f2wF9LaLgDyM57Rz0hrSwFTTqY5qauGAOVJw2KW/B/jlhZpzdI6mLIc9WXK0nZuynLsf1OW42HtP41Z2heq1lOSMWunnWlbZz22l0nD0va+gLPvZtXat8HHH00BlBXNu7mn7LxjA89JVBdQnpNIcj0ESB/VFdcj2yTnYwWqc+yHsnPs2xHX2JdF94T/qK7JH6iuKcsAaFIFmJr7n/rBBpQV8a0ZLPkKYjF/0W6A7po0jOclkgNBXQyUbo34y6IRf3Cl5BfmR32R/2bML80T8+Ul4fxoUTgQrWyuScPWkdAO0fNdmdK6mHm7Rf06SHIfo/iXLZ45AZFzMc+aYKS1xYimFxvFOdV+ANXTlpaZias3W36lb7a2hbWDnQDroFdZT9JT1o56fC/TbsYAKE+7GbOfvVmy9X68/iwKddVUQFmC9c4/qc57Y2mktvzCdv1Z/VRjVr8kT1oNU9w8efUkPemeqifcT2cmrpZhqvs5AMpwHlxA+W5t1LNulOhbn4770ffM9El/ApSN58UVA+UANaxrAVGPBSRdDcgwBabpKiBU8jWkts03qx+rhKQu5SR9JVNVZupNRNJvsW9IIem/3PdEAWYfALOUh+0Z05oUwJoFTta+AN3bxNUx63GwPSeuVgAo+qB6HCluGnCmbWcC3F4lqr3XPWHqvc8XyRsCNNkIQHnGdynv7r9ojvtK084HamZUQIobrTcvruT6O2wsYBwPECfWTlytuJ/S44ieEde0AtH17GdyBs6fAE1kCahwgICyJPrEK/jW3Br1rV8jId1VM7P58YTVSH0zkCK6AtK6E1eHA6Fa44mraywCYzijMInB1KX8ZGZZ4hevN053QEJqe2Y5KQv5HVFOdxFV5TKSJxVTpIfehN+3OaSFtHZADNkDP+NkOBNEyxE5mzT4u7HaF6BxAFplTFwdA6CxOoDGAKgGQGMANGXthGjZBVbTB41Zu0Xjlh4zFPsZjRoXC4Bbpe2Xf6rn/a+eBpyVeUP0Ssc1+veOG3TVce26iGvI8YZrg4ra7rpIzrtvjuIYsSXlejgzs7xWM+0mbAzs8QygknscoHwC0XOqnkLkBKA7oq6nPy9zPfnbhHv63du9/0LUnAGbBXtV3+57G+DNWhGmqXt8yVQ43xigeN5LbfZ+ose9c2HzAPQnOOZLPeZdMB0uB9RASzyreoZ8Bc8JvsIy9EF/UAGilh/MzIsrAkwhUAorhwXrABoGgDyrfEQX0fdU8hPwT+lKi6QuA04Z6wBUKffJlxmnOWCVU+TUMpL+BTi3xmkbz7aAaKqsKyPlsQqKnhOi0H5nIDzkhch5Cb+RwmAag94/BZzdjOJmU0OAxjI3iQKbK6llUZxab65GiluNFLcKKW4VUtwqpLjVSHHjADRh7SRXWzsXxq1dFiQsXSfJdPrAQurc6Mczq+nM/Crblc9/bx9cmLL/cW3aPmRt2jF07WbHdYUJx3VvBj2DjzFc96kKuretaL//b4ii7yddo79TXA8nE67HACunuONhE5HaTkIUnfgDAC2PuZ9cJLqmjq5wPtOBj4+7Xhiy1fNKQdwzY13cO2tt3Pvq2mrP69+p3tdeLaZpezxvDtvf+k3c88HitGfu+rh3Dvznro155q+r9i0qTPk+49fEDjiCLKWl7qB7de+Ib8OjEX/R+0qgdJ0aCJZF/aXbVERJDdFRhSmIkApSWAVQcoqLfqgeCchJOT9epAZSBZGAujySL78mBGKTwgF16AZ/pLVxipyoABAicg7jEUaC8VMQIVJ55oUQ+qZvV5AysoTE6zaScH6QIt2LKJbVmPGDJp3IDhivriIq48i5BYYoOlclynpenaaoIUCragAt1Ch/gEatb6ukNlMqLW1hx02utBwP6zC52nLyFIVOelykU69K0am9ItTl+KbMMMgD/7fSoF8n867omci7olsi7+qMRfOu7qk6ruuo0y1ZPe8V6a42mn1EL8k56gbV/ejkmHvslJh7PJbjJyfcT0yRXZNGRZz/GCg5n2qPP3ctRJX04lHVnle6K56Z3XaZ6pnVUwm8dvLe0jVORePeD7tEPB/0UDwfw39+xlTPRz1j7k9z3gCLqbiN4FnfTfCWDgh5N90XDZRPVQPRyXJAmCwFpFpTWqhTAOiEcL70V6Vl/JxofrJn0BftpLXWmvSzio2XbgGkZwDGcYim64Kk7IzRZl2D8SyAiKqbwxSrECldiIj7mHHQoa0wUas00UJ+2ZojJ6Lo+yLRiUZxs6shQI3noKsRCTMdflyfrQFrxn/4gYsH19fY7Izt7VfKDlfxAIG922xeNmkWhlyIr4F//5N/6h5p7vuwoECJSp7omgc48EvfKPsPPA/ptpMRDzhAejuokmgN4HwP0bRRP9mXK+0H0Ca/zWLKFGsDbWhdQlL/IGnXlJM4upQiz5aSPBOA3gCQD31Adwmg9AKgJxibP5tMQE39XGIggxR08TSjSNcPaAz5ESMTUFOmDmGZgJoydQjrlw5oGVE+PqP5JWPq8NQvHVB8vltjRDkZNWPK1M+uXYBuBaBxABoHoCkAuhOAahb/hsMd0DTR81VES/lxlrHLlKnDR4gup6WIBB2AbgWgmwFo3OLZvs3iD8coMEdq5O+DHqiWErn5uaqxecDi1JZn2OfoCUC34UuoUQ/GVxPlSUTtZaJf49g9fmy4KeLPdaAzX+xLXD9PXo7lQXv2aaqZxDMBJoimJMnyrxjlTYU9ESfPTUny9JTI2eFAfnu0seJhjoh0EwHV0cauAxbqvBifbRhPpgY451USpfhFBKN4r0J5X/i9gr9HEeAsxXFzkWH8wShukhhM1DEc19JsPxOPL6Br8Pcbh+vN+icKTR3iYgD525cjh7HrZxfDuZWoMISolauZIgDZdai3BKCdBbsQ69uw752GojQad3tkEt9iGYLfCzjmBWy/A2ivNlxqVUhINfZSD0ewufUiJafWgHMF6nvZ2LWbeJgjjtvr61nYb9/X/wXllleIXJuJZgDStQrRbmOWUb7XY/lvbHwGM+Ka2r8Az2NoYBoizasAYgYAGYPG1p3nYgIkd8J+Z7hmGhei3JVo8DeifI/0G3X0MqA8rboGtvkMCbanAr4Elvcgqu4xIATnvxD1bgdME3mbGy+uwccN2di24Xz9cfwkXCOyDZqO67oF1oq/4LB9Pep/BmX/xr6pWA7iY3myN1zTEpSvxvJ29uPUWyRqg/pvwPZLRn2Tca39+Fw4/kzYg9j3MspewfJh+NfOhIjrPAq+f0LZc1yOz7kJ/ku5zsz0M0QXYP9TON+/sBzOKTsfh3rawe6B78uwGfi7HxkvWJs6MKGxPILGshUNahka3hw0oiAa+3eAZSj2z8e+VfDJvLLE45TR6IpQ/iZgrX1HE/uOh/8E+PK0MF8yBPAZzzNSoI7rcDz3KSvhtwMN/GuU3Vg3fYfPKbAS7N+AOi4FXLVv43CkQt03oTyK4wtQz1z4lKPONPafh/UTcM4klhtw/MdYrkeZCt9bcB0u+H+K9QTsC9gM+P4Gfq/Bj30WwT6HbUH9szliYvkyrpFnbfwSPp/weeG/DNaevwywj38XNobyJXwszhWDfcGfGWWXwb8Cy69Q9gH8RKy/y31yrF+Jeitx/vVY/wjHX2h8RFOmGhai19gtABKN7zdoNBxxBnDDQkN7C43rLpQnsJ35VW6sD+VtRJ8/Zg6GdhK1RsN7A/t3vaq3A/XcVYH+NfavYcP2QDTYKAOLdJp/KiMNu3dXhGThXH/AvmU4rwpbDP+buZy/FFBHMY5dCCA7ckSG76Ow7YhWA3G+k3HNaWz/maMulv1wvWEGxIigi3H+N1F2DHxbYfsW+OyAzwiOevyL6dj/Kc49h/usONfbiIrrEPm6GmD9FX8fhnAIjr0Ufklc33j4tdlIdCyu6zXsW1qC68Bx78G+QpbQCT6tcd7RKNewfRF8BuOzC6jjcnQnWuKLZ4+X0E2Z2kNoOOPQANehcdbOnICGNR8NqwyN/HQ0tK/QoN9BI/Ogsb7J22hktY9/0HAvgm81TMdxOi/hV8qNFMddhvJK7P8Sx6SxP+PDkKJM4H6vUU1GnA7C/1bYUlxXFfzvA0T9GCgcN8xw45tr9+DatqDOCwDeySiLwyczux2Obcnng81nSODzBfz5N1Ezgt8klO3k6+Nt7rfiPB/hfB8zoDjmLUC2nH9Fnctx/Kn44uGofCeOy/wWLOqofeMJf7vMoySB6GwcuwLlxbi2WfCZhfWFqIsj/VAAfRV8y3G9TfqBKVNHqAxA1yIy7XqH0oKGtQQNshiNLB92FxpXBRrqSDS2jWh89xt+GaH8POxPMnRowPw7NTq2GcApqKcF6p/Pczvh+NpynogN6yVo1HudToUfs+Cc/IbRKqxfgWvZjLruM4r5C+Su+oCi/Eouw3FHYT/3O/nu8VFY8nrtTSL4TcD2ToCf6VdyWov6P6gD6JtYX8kRl8vh2xnXW4BruQP1jkWdSSxP5TIWPut0+C8D0D2wvgT18wRzj+G4MbjGv2N5L9Jf/uK5Bn/nIMrONw41ZWr/QuOaiIbDfcfzAVl7bljYx88ueV6fTFTDeiHKtqIBrkND2+03QdYSedF4J/MxPCMFw8mwonHGEDmGoEG/hXQu8wtwOE8GTiwFHHMt9y+5Dk5jAcYNiL6/wfFtcQ3cXwvjXF/gi6Mr1jkyrUOdfXHcCVh/Ff4M+UCc4xTs3wzfwVwXzvMr7FuJfZ/jM/l5Cd8C1Nsd/seh7EYc/z3sGVgH7OsNnzKcYz4Dinre5c8Jv8ys7Sjris9Viv138I0q1M8Tl7+J8o6wnjhuJWwVp7tYPsvlqPdm+JwI64b1KzilxTVcj7+LhGsawPWaMtUooUHdgwYowBYAno+xzTdr/s0NzHDhqPM4+pp8w+eFvT2bRcMOoCHzXdXFaNwR1FHJMKIx8k2SGAOLfQk04DLU9QZ8d/sBJwYNPmtwDV/D5mG9AL7fwDfT10X5H3FMMVLNpaj/Xez/EtdSBrDPg297lJXgXJlnpkhdOWrOwfZ7fK1Y3oFjKhDFF+P6pqFf2RH+0/BlUIpzzcG+D3GNm1D3DE53cZ0vYX3erufCOMdp2F6C67mRH8vg3BO5PuzjG2jvYv9ybH+0BtkCAO6C6+LrX4+/5Qewhdh+D4AyvFfgmFVmimsqK3Fqi8ZzHhrmQBg/7jiX70gaxZnnjmiIY2ApjiDG7r0KMByLBtkHAAyFPYntV9AgZ2J9LI6/FI27O/btMXwRkLTEec9BQ/8frA9BHb/nCGUUsyyo43SU882W/ljvCr+z+Di+2YI0uA+DyY6csuKc3dift420tTeguQjgnmXsCxjn+x2Xoc7TAU8nBhr7O2F/9103sLjvDZB7AuhjeRt/Lzfq7svXwteA405BeTdcR+a5J0de1NGP/5Z8TlxLd5RxvW04Q8DfIZ/9TJk6YKHhX4hG/T7AErB8kR9bGEX71a4H8my7UllTpkzlUIh2HK34ud+9u/pkpkyZOkSEyJcZCG5smjJlypQpU6ZMmTJlypQpU6ZMmTJlypQpU6ZMmTJlypQpU6ZMmTJlypQpU6ZMmTJlypQpU6ZM/VJF9P/4VLlQmJjGNAAAAABJRU5ErkJggg==&quot; style=&quot;font-size: 10px;&quot;&gt;" style="text;html=1;strokeColor=none;fillColor=none;align=center;verticalAlign=middle;whiteSpace=wrap;rounded=0;fontSize=10;" parent="1" vertex="1">
          <mxGeometry x="140" y="9542.5" width="10" height="10" as="geometry" />
        </mxCell>
        <mxCell id="nctrB8vf493KiRFq7X1_-5" value="Funcionalidad" style="rounded=0;whiteSpace=wrap;html=1;fontSize=14;fontStyle=1;fillColor=#BAC8D3;fontColor=#ffffff;strokeColor=#BAC8D3;" parent="1" vertex="1">
          <mxGeometry x="40.00000000000006" y="8860" width="443.5" height="41" as="geometry" />
        </mxCell>
        <mxCell id="nctrB8vf493KiRFq7X1_-12" value="&lt;font style=&quot;font-size: 14px;&quot;&gt;PLARD Consulta Datos de Tarjeta&lt;/font&gt;" style="shape=umlFrame;whiteSpace=wrap;html=1;pointerEvents=0;recursiveResize=0;container=1;collapsible=0;width=310;height=44;fontStyle=1;fontSize=13;strokeColor=#000000;strokeWidth=2;" parent="1" vertex="1">
          <mxGeometry x="40" y="9582" width="1760" height="2228" as="geometry" />
        </mxCell>
        <mxCell id="nctrB8vf493KiRFq7X1_-13" value="&amp;nbsp; Cliente Santander" style="shape=umlLifeline;perimeter=lifelinePerimeter;whiteSpace=wrap;html=1;container=1;dropTarget=0;collapsible=0;recursiveResize=0;outlineConnect=0;portConstraint=eastwest;newEdgeStyle={&quot;edgeStyle&quot;:&quot;elbowEdgeStyle&quot;,&quot;elbow&quot;:&quot;vertical&quot;,&quot;curved&quot;:0,&quot;rounded&quot;:0};fillColor=#FFFFFF;strokeColor=#000000;align=center;gradientColor=#ffffff;" parent="nctrB8vf493KiRFq7X1_-12" vertex="1">
          <mxGeometry x="25" y="76" width="161" height="2124" as="geometry" />
        </mxCell>
        <mxCell id="nctrB8vf493KiRFq7X1_-14" value="" style="html=1;points=[[0,0,0,0,5],[0,1,0,0,-5],[1,0,0,0,5],[1,1,0,0,-5]];perimeter=orthogonalPerimeter;outlineConnect=0;targetShapes=umlLifeline;portConstraint=eastwest;newEdgeStyle={&quot;curved&quot;:0,&quot;rounded&quot;:0};" parent="nctrB8vf493KiRFq7X1_-13" vertex="1">
          <mxGeometry x="75" y="103" width="10" height="1999" as="geometry" />
        </mxCell>
        <mxCell id="nctrB8vf493KiRFq7X1_-15" value="&lt;span style=&quot;&quot;&gt;&amp;lt;&amp;lt;COMPONENTE&amp;gt;&amp;gt;&lt;/span&gt;&lt;div style=&quot;&quot;&gt;Agave&lt;/div&gt;" style="shape=umlLifeline;perimeter=lifelinePerimeter;whiteSpace=wrap;html=1;container=1;dropTarget=0;collapsible=0;recursiveResize=0;outlineConnect=0;portConstraint=eastwest;newEdgeStyle={&quot;edgeStyle&quot;:&quot;elbowEdgeStyle&quot;,&quot;elbow&quot;:&quot;vertical&quot;,&quot;curved&quot;:0,&quot;rounded&quot;:0};align=center;sketch=1;curveFitting=1;jiggle=2;fillColor=#f8cecc;strokeColor=#b85450;" parent="nctrB8vf493KiRFq7X1_-12" vertex="1">
          <mxGeometry x="538" y="76" width="161" height="1944" as="geometry" />
        </mxCell>
        <mxCell id="pCUDI1BJ3AaRnasVNfEv-42" value="" style="html=1;points=[[0,0,0,0,5],[0,1,0,0,-5],[1,0,0,0,5],[1,1,0,0,-5]];perimeter=orthogonalPerimeter;outlineConnect=0;targetShapes=umlLifeline;portConstraint=eastwest;newEdgeStyle={&quot;curved&quot;:0,&quot;rounded&quot;:0};labelBackgroundColor=#E8A6A6;sketch=1;curveFitting=1;jiggle=2;fillColor=#f8cecc;strokeColor=#b85450;" vertex="1" parent="nctrB8vf493KiRFq7X1_-15">
          <mxGeometry x="80" y="1668" width="10" height="49" as="geometry" />
        </mxCell>
        <mxCell id="nctrB8vf493KiRFq7X1_-16" value="&amp;lt;&amp;lt;CaaS Integration Layer&amp;gt;&lt;span style=&quot;background-color: initial;&quot;&gt;&amp;gt;&lt;/span&gt;&lt;div&gt;API TBD&lt;/div&gt;" style="shape=umlLifeline;perimeter=lifelinePerimeter;whiteSpace=wrap;html=1;container=1;dropTarget=0;collapsible=0;recursiveResize=0;outlineConnect=0;portConstraint=eastwest;newEdgeStyle={&quot;edgeStyle&quot;:&quot;elbowEdgeStyle&quot;,&quot;elbow&quot;:&quot;vertical&quot;,&quot;curved&quot;:0,&quot;rounded&quot;:0};align=center;sketch=1;curveFitting=1;jiggle=2;fillColor=#f8cecc;strokeColor=#B85450;" parent="nctrB8vf493KiRFq7X1_-12" vertex="1">
          <mxGeometry x="888" y="76" width="160" height="2124" as="geometry" />
        </mxCell>
        <mxCell id="pCUDI1BJ3AaRnasVNfEv-34" value="" style="html=1;points=[[0,0,0,0,5],[0,1,0,0,-5],[1,0,0,0,5],[1,1,0,0,-5]];perimeter=orthogonalPerimeter;outlineConnect=0;targetShapes=umlLifeline;portConstraint=eastwest;newEdgeStyle={&quot;curved&quot;:0,&quot;rounded&quot;:0};labelBackgroundColor=#E8A6A6;" vertex="1" parent="nctrB8vf493KiRFq7X1_-16">
          <mxGeometry x="72" y="756.5" width="10" height="49" as="geometry" />
        </mxCell>
        <mxCell id="nctrB8vf493KiRFq7X1_-17" value="&amp;lt;&amp;lt;MQ&amp;gt;&amp;gt;&lt;div&gt;Launcher&amp;nbsp;&lt;span style=&quot;background-color: initial;&quot;&gt;PLARD&lt;/span&gt;&lt;/div&gt;" style="shape=umlLifeline;perimeter=lifelinePerimeter;whiteSpace=wrap;html=1;container=1;dropTarget=0;collapsible=0;recursiveResize=0;outlineConnect=0;portConstraint=eastwest;newEdgeStyle={&quot;edgeStyle&quot;:&quot;elbowEdgeStyle&quot;,&quot;elbow&quot;:&quot;vertical&quot;,&quot;curved&quot;:0,&quot;rounded&quot;:0};align=center;" parent="nctrB8vf493KiRFq7X1_-12" vertex="1">
          <mxGeometry x="710" y="76" width="160" height="1944" as="geometry" />
        </mxCell>
        <mxCell id="pCUDI1BJ3AaRnasVNfEv-45" value="" style="html=1;points=[[0,0,0,0,5],[0,1,0,0,-5],[1,0,0,0,5],[1,1,0,0,-5]];perimeter=orthogonalPerimeter;outlineConnect=0;targetShapes=umlLifeline;portConstraint=eastwest;newEdgeStyle={&quot;curved&quot;:0,&quot;rounded&quot;:0};labelBackgroundColor=#E8A6A6;" vertex="1" parent="nctrB8vf493KiRFq7X1_-17">
          <mxGeometry x="80" y="1704" width="10" height="49" as="geometry" />
        </mxCell>
        <mxCell id="nctrB8vf493KiRFq7X1_-18" value="&lt;div style=&quot;&quot;&gt;&lt;span style=&quot;background-color: initial;&quot;&gt;&amp;lt;&amp;lt;CANAL&amp;gt;&amp;gt;&amp;nbsp;&amp;nbsp;&lt;/span&gt;&lt;/div&gt;&lt;div style=&quot;&quot;&gt;ATM Cajero Automático&lt;/div&gt;" style="shape=umlLifeline;perimeter=lifelinePerimeter;whiteSpace=wrap;html=1;container=1;dropTarget=0;collapsible=0;recursiveResize=0;outlineConnect=0;portConstraint=eastwest;newEdgeStyle={&quot;edgeStyle&quot;:&quot;elbowEdgeStyle&quot;,&quot;elbow&quot;:&quot;vertical&quot;,&quot;curved&quot;:0,&quot;rounded&quot;:0};align=center;" parent="nctrB8vf493KiRFq7X1_-12" vertex="1">
          <mxGeometry x="212" y="76" width="190" height="2134" as="geometry" />
        </mxCell>
        <mxCell id="pCUDI1BJ3AaRnasVNfEv-62" value="" style="html=1;points=[[0,0,0,0,5],[0,1,0,0,-5],[1,0,0,0,5],[1,1,0,0,-5]];perimeter=orthogonalPerimeter;outlineConnect=0;targetShapes=umlLifeline;portConstraint=eastwest;newEdgeStyle={&quot;curved&quot;:0,&quot;rounded&quot;:0};" vertex="1" parent="nctrB8vf493KiRFq7X1_-18">
          <mxGeometry x="86" y="103" width="10" height="1989" as="geometry" />
        </mxCell>
        <mxCell id="nctrB8vf493KiRFq7X1_-54" value="&lt;div style=&quot;&quot;&gt;&amp;lt;&amp;lt;PLATAFORMA SaaS&amp;gt;&amp;gt;&lt;/div&gt;&lt;span style=&quot;&quot;&gt;PLARD&lt;/span&gt;" style="shape=umlLifeline;perimeter=lifelinePerimeter;whiteSpace=wrap;html=1;container=1;dropTarget=0;collapsible=0;recursiveResize=0;outlineConnect=0;portConstraint=eastwest;newEdgeStyle={&quot;edgeStyle&quot;:&quot;elbowEdgeStyle&quot;,&quot;elbow&quot;:&quot;vertical&quot;,&quot;curved&quot;:0,&quot;rounded&quot;:0};align=center;" parent="nctrB8vf493KiRFq7X1_-12" vertex="1">
          <mxGeometry x="1062.75" y="76" width="160" height="2124" as="geometry" />
        </mxCell>
        <mxCell id="pCUDI1BJ3AaRnasVNfEv-51" value="" style="html=1;points=[[0,0,0,0,5],[0,1,0,0,-5],[1,0,0,0,5],[1,1,0,0,-5]];perimeter=orthogonalPerimeter;outlineConnect=0;targetShapes=umlLifeline;portConstraint=eastwest;newEdgeStyle={&quot;curved&quot;:0,&quot;rounded&quot;:0};labelBackgroundColor=#E8A6A6;" vertex="1" parent="nctrB8vf493KiRFq7X1_-54">
          <mxGeometry x="80.25" y="1743" width="10" height="49" as="geometry" />
        </mxCell>
        <mxCell id="nctrB8vf493KiRFq7X1_-55" style="edgeStyle=orthogonalEdgeStyle;rounded=0;orthogonalLoop=1;jettySize=auto;html=1;curved=0;" parent="nctrB8vf493KiRFq7X1_-12" source="nctrB8vf493KiRFq7X1_-18" target="nctrB8vf493KiRFq7X1_-18" edge="1">
          <mxGeometry relative="1" as="geometry">
            <mxPoint x="314" y="203" as="sourcePoint" />
            <mxPoint x="314" y="229" as="targetPoint" />
            <Array as="points">
              <mxPoint x="498" y="203" />
              <mxPoint x="498" y="228" />
            </Array>
          </mxGeometry>
        </mxCell>
        <mxCell id="nctrB8vf493KiRFq7X1_-56" value="&lt;span style=&quot;font-size: 10px;&quot;&gt;Valida tarjeta&lt;/span&gt;&lt;div&gt;&lt;span style=&quot;font-size: 10px;&quot;&gt;&amp;nbsp;del cliente&lt;/span&gt;&lt;/div&gt;" style="edgeLabel;html=1;align=center;verticalAlign=middle;resizable=0;points=[];labelBackgroundColor=none;" parent="nctrB8vf493KiRFq7X1_-55" vertex="1" connectable="0">
          <mxGeometry x="-0.0246" y="2" relative="1" as="geometry">
            <mxPoint x="-82" y="-22" as="offset" />
          </mxGeometry>
        </mxCell>
        <mxCell id="nctrB8vf493KiRFq7X1_-57" value="&lt;div&gt;&lt;span style=&quot;background-color: initial;&quot;&gt;&amp;lt;&amp;lt;Altair 390&amp;gt;&amp;gt;&lt;/span&gt;&lt;br&gt;&lt;/div&gt;&lt;font color=&quot;#000000&quot;&gt;PAMPA&lt;/font&gt;" style="shape=umlLifeline;perimeter=lifelinePerimeter;whiteSpace=wrap;html=1;container=1;dropTarget=0;collapsible=0;recursiveResize=0;outlineConnect=0;portConstraint=eastwest;newEdgeStyle={&quot;edgeStyle&quot;:&quot;elbowEdgeStyle&quot;,&quot;elbow&quot;:&quot;vertical&quot;,&quot;curved&quot;:0,&quot;rounded&quot;:0};align=center;" parent="nctrB8vf493KiRFq7X1_-12" vertex="1">
          <mxGeometry x="1430.25" y="76" width="162" height="2114" as="geometry" />
        </mxCell>
        <mxCell id="nctrB8vf493KiRFq7X1_-58" style="edgeStyle=orthogonalEdgeStyle;rounded=0;orthogonalLoop=1;jettySize=auto;html=1;curved=0;" parent="nctrB8vf493KiRFq7X1_-12" source="nctrB8vf493KiRFq7X1_-18" target="nctrB8vf493KiRFq7X1_-18" edge="1">
          <mxGeometry relative="1" as="geometry">
            <mxPoint x="313.02000000000004" y="407.02" as="sourcePoint" />
            <mxPoint x="313.02000000000004" y="447.02" as="targetPoint" />
            <Array as="points">
              <mxPoint x="498" y="407" />
              <mxPoint x="498" y="447" />
            </Array>
          </mxGeometry>
        </mxCell>
        <mxCell id="nctrB8vf493KiRFq7X1_-59" value="Valida BIN de la&amp;nbsp;&lt;span style=&quot;background-color: initial;&quot;&gt;Tarjeta&lt;/span&gt;&lt;div&gt;[6 DIGITOS INICIO]&lt;/div&gt;" style="edgeLabel;html=1;align=center;verticalAlign=middle;resizable=0;points=[];labelBackgroundColor=none;" parent="nctrB8vf493KiRFq7X1_-58" vertex="1" connectable="0">
          <mxGeometry x="-0.0083" y="-2" relative="1" as="geometry">
            <mxPoint x="-84" y="-33" as="offset" />
          </mxGeometry>
        </mxCell>
        <mxCell id="nctrB8vf493KiRFq7X1_-62" style="edgeStyle=orthogonalEdgeStyle;rounded=0;orthogonalLoop=1;jettySize=auto;html=1;curved=0;exitX=1;exitY=0;exitDx=0;exitDy=5;exitPerimeter=0;" parent="nctrB8vf493KiRFq7X1_-12" source="nctrB8vf493KiRFq7X1_-14" target="nctrB8vf493KiRFq7X1_-18" edge="1">
          <mxGeometry relative="1" as="geometry">
            <mxPoint x="302" y="202" as="targetPoint" />
            <Array as="points">
              <mxPoint x="250" y="202" />
              <mxPoint x="250" y="202" />
            </Array>
          </mxGeometry>
        </mxCell>
        <mxCell id="nctrB8vf493KiRFq7X1_-63" value="&lt;span style=&quot;font-size: 10px;&quot;&gt;Ingresa tarjeta a ATM&lt;/span&gt;" style="edgeLabel;html=1;align=center;verticalAlign=middle;resizable=0;points=[];labelBackgroundColor=none;" parent="nctrB8vf493KiRFq7X1_-12" vertex="1" connectable="0">
          <mxGeometry x="210" y="189.00241379310376" as="geometry">
            <mxPoint x="-13" y="5" as="offset" />
          </mxGeometry>
        </mxCell>
        <mxCell id="nctrB8vf493KiRFq7X1_-64" value="" style="html=1;verticalAlign=bottom;startArrow=none;startFill=0;endArrow=block;curved=0;rounded=0;endSize=2;" parent="nctrB8vf493KiRFq7X1_-12" edge="1">
          <mxGeometry width="60" relative="1" as="geometry">
            <mxPoint x="307.3913043478261" y="419.52000000000044" as="sourcePoint" />
            <mxPoint x="307.29999999999995" y="439.52000000000044" as="targetPoint" />
            <Array as="points">
              <mxPoint x="321.56" y="419.52" />
              <mxPoint x="331.56" y="429.52" />
              <mxPoint x="321.56" y="439.52" />
            </Array>
          </mxGeometry>
        </mxCell>
        <mxCell id="nctrB8vf493KiRFq7X1_-65" style="edgeStyle=orthogonalEdgeStyle;rounded=0;orthogonalLoop=1;jettySize=auto;html=1;curved=0;" parent="nctrB8vf493KiRFq7X1_-12" source="nctrB8vf493KiRFq7X1_-18" target="nctrB8vf493KiRFq7X1_-18" edge="1">
          <mxGeometry relative="1" as="geometry">
            <mxPoint x="313.02" y="486.24" as="sourcePoint" />
            <mxPoint x="313.02" y="516.24" as="targetPoint" />
            <Array as="points">
              <mxPoint x="498" y="486" />
              <mxPoint x="498" y="516" />
            </Array>
          </mxGeometry>
        </mxCell>
        <mxCell id="nctrB8vf493KiRFq7X1_-66" value="Consulta tabla de BINES&lt;div&gt;(Actualizacion diaria&amp;nbsp;&lt;span style=&quot;background-color: initial;&quot;&gt;Proceso manual)&lt;/span&gt;&lt;/div&gt;" style="edgeLabel;html=1;align=center;verticalAlign=middle;resizable=0;points=[];labelBackgroundColor=none;" parent="nctrB8vf493KiRFq7X1_-65" vertex="1" connectable="0">
          <mxGeometry x="-0.0246" y="2" relative="1" as="geometry">
            <mxPoint x="-93" y="-25" as="offset" />
          </mxGeometry>
        </mxCell>
        <mxCell id="nctrB8vf493KiRFq7X1_-67" style="edgeStyle=orthogonalEdgeStyle;rounded=0;orthogonalLoop=1;jettySize=auto;html=1;curved=0;" parent="nctrB8vf493KiRFq7X1_-12" source="nctrB8vf493KiRFq7X1_-18" target="nctrB8vf493KiRFq7X1_-18" edge="1">
          <mxGeometry relative="1" as="geometry">
            <mxPoint x="313.02" y="259.01886792452797" as="sourcePoint" />
            <mxPoint x="310.0000000000002" y="296" as="targetPoint" />
            <Array as="points">
              <mxPoint x="498" y="266" />
              <mxPoint x="498" y="296" />
            </Array>
          </mxGeometry>
        </mxCell>
        <mxCell id="nctrB8vf493KiRFq7X1_-68" value="&lt;div&gt;Valida PAN de la tarjeta&lt;/div&gt;&lt;div&gt;[16 DIGITOS]&lt;/div&gt;" style="edgeLabel;html=1;align=center;verticalAlign=middle;resizable=0;points=[];labelBackgroundColor=none;" parent="nctrB8vf493KiRFq7X1_-67" vertex="1" connectable="0">
          <mxGeometry x="-0.0083" y="-2" relative="1" as="geometry">
            <mxPoint x="-76" y="-27" as="offset" />
          </mxGeometry>
        </mxCell>
        <mxCell id="nctrB8vf493KiRFq7X1_-69" style="edgeStyle=orthogonalEdgeStyle;rounded=0;orthogonalLoop=1;jettySize=auto;html=1;curved=0;" parent="nctrB8vf493KiRFq7X1_-12" source="nctrB8vf493KiRFq7X1_-18" target="nctrB8vf493KiRFq7X1_-18" edge="1">
          <mxGeometry relative="1" as="geometry">
            <mxPoint x="313.23" y="330.9999999999991" as="sourcePoint" />
            <mxPoint x="313.23" y="370.9999999999991" as="targetPoint" />
            <Array as="points">
              <mxPoint x="498" y="331" />
              <mxPoint x="498" y="371" />
            </Array>
          </mxGeometry>
        </mxCell>
        <mxCell id="nctrB8vf493KiRFq7X1_-70" value="Identifica tipo de Tarjeta&amp;nbsp;&lt;div style=&quot;&quot;&gt;(TDD, TDC, tarjeta otros bancos)&amp;nbsp;&lt;/div&gt;" style="edgeLabel;html=1;align=center;verticalAlign=middle;resizable=0;points=[];labelBackgroundColor=none;" parent="nctrB8vf493KiRFq7X1_-12" vertex="1" connectable="0">
          <mxGeometry x="361" y="294.00222222222214" as="geometry">
            <mxPoint x="45" y="23" as="offset" />
          </mxGeometry>
        </mxCell>
        <mxCell id="nctrB8vf493KiRFq7X1_-71" value="" style="html=1;verticalAlign=bottom;startArrow=none;startFill=0;endArrow=block;curved=0;rounded=0;endSize=2;" parent="nctrB8vf493KiRFq7X1_-12" source="nctrB8vf493KiRFq7X1_-18" target="nctrB8vf493KiRFq7X1_-18" edge="1">
          <mxGeometry width="60" relative="1" as="geometry">
            <mxPoint x="313" y="346" as="sourcePoint" />
            <mxPoint x="313" y="366" as="targetPoint" />
            <Array as="points">
              <mxPoint x="321" y="346" />
              <mxPoint x="330" y="356" />
              <mxPoint x="320" y="366" />
            </Array>
          </mxGeometry>
        </mxCell>
        <mxCell id="nctrB8vf493KiRFq7X1_-72" style="edgeStyle=orthogonalEdgeStyle;rounded=0;orthogonalLoop=1;jettySize=auto;html=1;curved=0;" parent="nctrB8vf493KiRFq7X1_-12" source="nctrB8vf493KiRFq7X1_-18" target="nctrB8vf493KiRFq7X1_-18" edge="1">
          <mxGeometry relative="1" as="geometry">
            <mxPoint x="314" y="542.24" as="sourcePoint" />
            <mxPoint x="314" y="572.24" as="targetPoint" />
            <Array as="points">
              <mxPoint x="499" y="542" />
              <mxPoint x="499" y="572" />
            </Array>
          </mxGeometry>
        </mxCell>
        <mxCell id="nctrB8vf493KiRFq7X1_-73" value="Valida origen de la tarjeta" style="edgeLabel;html=1;align=center;verticalAlign=middle;resizable=0;points=[];labelBackgroundColor=none;" parent="nctrB8vf493KiRFq7X1_-72" vertex="1" connectable="0">
          <mxGeometry x="-0.0246" y="2" relative="1" as="geometry">
            <mxPoint x="-94" y="-18" as="offset" />
          </mxGeometry>
        </mxCell>
        <mxCell id="nctrB8vf493KiRFq7X1_-74" value="&lt;ul type=&quot;disc&quot; style=&quot;margin-top: 0cm;&quot;&gt;&lt;li style=&quot;margin-left: 0cm;&quot; class=&quot;MsoListParagraph&quot;&gt;PAN&lt;/li&gt;&lt;li style=&quot;margin-left: 0cm;&quot; class=&quot;MsoListParagraph&quot;&gt;TIPO TARJETA = TDD&lt;/li&gt;&lt;li style=&quot;margin-left: 0cm;&quot; class=&quot;MsoListParagraph&quot;&gt;BIN&lt;/li&gt;&lt;li style=&quot;margin-left: 0cm;&quot; class=&quot;MsoListParagraph&quot;&gt;Origen&lt;/li&gt;&lt;/ul&gt;" style="text;html=1;strokeColor=none;fillColor=none;align=left;verticalAlign=middle;whiteSpace=wrap;rounded=0;fontColor=#999999;fontSize=6;" parent="nctrB8vf493KiRFq7X1_-12" vertex="1">
          <mxGeometry x="198" y="568" width="110" height="26.5" as="geometry" />
        </mxCell>
        <mxCell id="nctrB8vf493KiRFq7X1_-75" value="" style="html=1;verticalAlign=bottom;startArrow=none;startFill=0;endArrow=block;curved=0;rounded=0;endSize=2;" parent="nctrB8vf493KiRFq7X1_-12" edge="1">
          <mxGeometry width="60" relative="1" as="geometry">
            <mxPoint x="307.43006993006986" y="275" as="sourcePoint" />
            <mxPoint x="307.43006993006986" y="290" as="targetPoint" />
            <Array as="points">
              <mxPoint x="321" y="275" />
              <mxPoint x="330" y="285" />
              <mxPoint x="320" y="290" />
            </Array>
          </mxGeometry>
        </mxCell>
        <mxCell id="nctrB8vf493KiRFq7X1_-79" style="edgeStyle=orthogonalEdgeStyle;rounded=0;orthogonalLoop=1;jettySize=auto;html=1;curved=0;exitX=0.502;exitY=0.318;exitDx=0;exitDy=0;exitPerimeter=0;" parent="nctrB8vf493KiRFq7X1_-12" edge="1">
          <mxGeometry relative="1" as="geometry">
            <mxPoint x="307.3800000000001" y="672.3719999999994" as="sourcePoint" />
            <mxPoint x="304.6428571428569" y="723" as="targetPoint" />
            <Array as="points">
              <mxPoint x="504" y="672" />
              <mxPoint x="504" y="723" />
            </Array>
          </mxGeometry>
        </mxCell>
        <mxCell id="nctrB8vf493KiRFq7X1_-80" value="Valida BIN Excento de comision&lt;div&gt;BIN = origen de la tarjeta == Grupo Santander Internacional&lt;/div&gt;" style="edgeLabel;html=1;align=left;verticalAlign=middle;resizable=0;points=[];labelBackgroundColor=none;" parent="nctrB8vf493KiRFq7X1_-79" vertex="1" connectable="0">
          <mxGeometry x="-0.0246" y="2" relative="1" as="geometry">
            <mxPoint x="-162" y="-38" as="offset" />
          </mxGeometry>
        </mxCell>
        <mxCell id="nctrB8vf493KiRFq7X1_-81" value="alt&lt;div style=&quot;font-size: 5px;&quot;&gt;&lt;font style=&quot;font-size: 5px;&quot;&gt;TARJETA SANTANDER INTERNACIONAL&lt;/font&gt;&lt;/div&gt;" style="shape=umlFrame;whiteSpace=wrap;html=1;pointerEvents=0;" parent="nctrB8vf493KiRFq7X1_-12" vertex="1">
          <mxGeometry x="230" y="605" width="1362.25" height="1105" as="geometry" />
        </mxCell>
        <mxCell id="nctrB8vf493KiRFq7X1_-99" value="&lt;div&gt;&lt;span style=&quot;background-color: initial;&quot;&gt;&amp;lt;&amp;lt;MQ CANAL&amp;gt;&amp;gt;&lt;/span&gt;&lt;br&gt;&lt;/div&gt;&lt;font color=&quot;#000000&quot;&gt;MQ&amp;nbsp;&lt;/font&gt;OPEN" style="shape=umlLifeline;perimeter=lifelinePerimeter;whiteSpace=wrap;html=1;container=1;dropTarget=0;collapsible=0;recursiveResize=0;outlineConnect=0;portConstraint=eastwest;newEdgeStyle={&quot;edgeStyle&quot;:&quot;elbowEdgeStyle&quot;,&quot;elbow&quot;:&quot;vertical&quot;,&quot;curved&quot;:0,&quot;rounded&quot;:0};align=center;sketch=1;curveFitting=1;jiggle=2;fillColor=#ffcccc;strokeColor=#B85450;labelBorderColor=none;" parent="nctrB8vf493KiRFq7X1_-12" vertex="1">
          <mxGeometry x="1245" y="76" width="162" height="2124" as="geometry" />
        </mxCell>
        <mxCell id="pCUDI1BJ3AaRnasVNfEv-38" value="" style="html=1;points=[[0,0,0,0,5],[0,1,0,0,-5],[1,0,0,0,5],[1,1,0,0,-5]];perimeter=orthogonalPerimeter;outlineConnect=0;targetShapes=umlLifeline;portConstraint=eastwest;newEdgeStyle={&quot;curved&quot;:0,&quot;rounded&quot;:0};labelBackgroundColor=#E8A6A6;" vertex="1" parent="nctrB8vf493KiRFq7X1_-99">
          <mxGeometry x="84" y="826" width="10" height="49" as="geometry" />
        </mxCell>
        <mxCell id="pCUDI1BJ3AaRnasVNfEv-52" value="" style="html=1;points=[[0,0,0,0,5],[0,1,0,0,-5],[1,0,0,0,5],[1,1,0,0,-5]];perimeter=orthogonalPerimeter;outlineConnect=0;targetShapes=umlLifeline;portConstraint=eastwest;newEdgeStyle={&quot;curved&quot;:0,&quot;rounded&quot;:0};labelBackgroundColor=#E8A6A6;" vertex="1" parent="nctrB8vf493KiRFq7X1_-99">
          <mxGeometry x="76" y="1787" width="10" height="49" as="geometry" />
        </mxCell>
        <mxCell id="nctrB8vf493KiRFq7X1_-23" style="edgeStyle=orthogonalEdgeStyle;rounded=0;orthogonalLoop=1;jettySize=auto;html=1;curved=0;exitX=0.5;exitY=0.666;exitDx=0;exitDy=0;exitPerimeter=0;entryX=0.5;entryY=0.682;entryDx=0;entryDy=0;entryPerimeter=0;" parent="nctrB8vf493KiRFq7X1_-12" edge="1">
          <mxGeometry relative="1" as="geometry">
            <mxPoint x="309" y="1351.0239999999997" as="sourcePoint" />
            <mxPoint x="309" y="1382.2880000000007" as="targetPoint" />
            <Array as="points">
              <mxPoint x="440" y="1351" />
              <mxPoint x="440" y="1382" />
            </Array>
          </mxGeometry>
        </mxCell>
        <mxCell id="nctrB8vf493KiRFq7X1_-24" value="Prepara menú RED" style="edgeLabel;html=1;align=center;verticalAlign=middle;resizable=0;points=[];" parent="nctrB8vf493KiRFq7X1_-23" vertex="1" connectable="0">
          <mxGeometry x="-0.0083" y="-2" relative="1" as="geometry">
            <mxPoint x="-58" y="-23" as="offset" />
          </mxGeometry>
        </mxCell>
        <mxCell id="nctrB8vf493KiRFq7X1_-25" style="edgeStyle=orthogonalEdgeStyle;rounded=0;orthogonalLoop=1;jettySize=auto;html=1;curved=0;" parent="nctrB8vf493KiRFq7X1_-12" edge="1">
          <mxGeometry relative="1" as="geometry">
            <mxPoint x="306.9" y="1109" as="sourcePoint" />
            <mxPoint x="307" y="1141" as="targetPoint" />
            <Array as="points">
              <mxPoint x="440" y="1109" />
              <mxPoint x="440" y="1141" />
            </Array>
          </mxGeometry>
        </mxCell>
        <mxCell id="nctrB8vf493KiRFq7X1_-26" value="[BIN == Grupo Santander Internacional&amp;nbsp;&lt;div&gt;&amp;amp;&amp;amp; exento de comisión = = Verdadero]&lt;/div&gt;" style="edgeLabel;html=1;align=center;verticalAlign=middle;resizable=0;points=[];labelBackgroundColor=none;" parent="nctrB8vf493KiRFq7X1_-25" vertex="1" connectable="0">
          <mxGeometry x="-0.0083" y="-2" relative="1" as="geometry">
            <mxPoint x="-28" y="-33" as="offset" />
          </mxGeometry>
        </mxCell>
        <mxCell id="nctrB8vf493KiRFq7X1_-27" value="Registra operación excenta de&amp;nbsp;&amp;nbsp;&lt;span style=&quot;background-color: initial;&quot;&gt;cobro de comisión&lt;/span&gt;" style="edgeLabel;html=1;align=center;verticalAlign=middle;resizable=0;points=[];labelBackgroundColor=none;" parent="nctrB8vf493KiRFq7X1_-25" vertex="1" connectable="0">
          <mxGeometry x="-0.1011" y="-1" relative="1" as="geometry">
            <mxPoint x="11" y="177" as="offset" />
          </mxGeometry>
        </mxCell>
        <mxCell id="nctrB8vf493KiRFq7X1_-28" style="edgeStyle=orthogonalEdgeStyle;rounded=0;orthogonalLoop=1;jettySize=auto;html=1;curved=0;entryX=0.5;entryY=0.583;entryDx=0;entryDy=0;entryPerimeter=0;" parent="nctrB8vf493KiRFq7X1_-12" edge="1">
          <mxGeometry relative="1" as="geometry">
            <mxPoint x="305.5" y="1184" as="sourcePoint" />
            <mxPoint x="307" y="1208.1820000000007" as="targetPoint" />
            <Array as="points">
              <mxPoint x="440" y="1184" />
              <mxPoint x="440" y="1208" />
            </Array>
          </mxGeometry>
        </mxCell>
        <mxCell id="nctrB8vf493KiRFq7X1_-29" value="Consulta Tabla Backend&amp;nbsp;&lt;div&gt;BINES&amp;nbsp;&lt;span style=&quot;background-color: initial;&quot;&gt;Excentos de comision&lt;/span&gt;&lt;/div&gt;" style="edgeLabel;html=1;align=center;verticalAlign=middle;resizable=0;points=[];labelBackgroundColor=none;" parent="nctrB8vf493KiRFq7X1_-28" vertex="1" connectable="0">
          <mxGeometry x="-0.1011" y="-1" relative="1" as="geometry">
            <mxPoint x="-51" y="-19" as="offset" />
          </mxGeometry>
        </mxCell>
        <mxCell id="nctrB8vf493KiRFq7X1_-33" value="&lt;font style=&quot;font-size: 15px;&quot;&gt;alt&lt;/font&gt;&lt;div style=&quot;font-size: 5px;&quot;&gt;&lt;font style=&quot;font-size: 5px;&quot;&gt;&lt;font style=&quot;font-size: 5px;&quot;&gt;Excepción de pago de&amp;nbsp;&lt;/font&gt;&lt;span style=&quot;background-color: initial;&quot;&gt;comisión&lt;/span&gt;&lt;/font&gt;&lt;/div&gt;" style="shape=umlFrame;whiteSpace=wrap;html=1;pointerEvents=0;" parent="nctrB8vf493KiRFq7X1_-12" vertex="1">
          <mxGeometry x="240" y="1043" width="346.75" height="502" as="geometry" />
        </mxCell>
        <mxCell id="nctrB8vf493KiRFq7X1_-37" style="edgeStyle=orthogonalEdgeStyle;rounded=0;orthogonalLoop=1;jettySize=auto;html=1;curved=0;exitX=0.504;exitY=0.898;exitDx=0;exitDy=0;exitPerimeter=0;entryX=0.477;entryY=0.894;entryDx=0;entryDy=0;entryPerimeter=0;" parent="nctrB8vf493KiRFq7X1_-12" edge="1">
          <mxGeometry relative="1" as="geometry">
            <mxPoint x="302.6300000000001" y="2004.7960000000003" as="targetPoint" />
            <Array as="points" />
            <mxPoint x="968.6400000000003" y="2004.3520000000008" as="sourcePoint" />
          </mxGeometry>
        </mxCell>
        <mxCell id="nctrB8vf493KiRFq7X1_-39" value="Obtiene informacion de la tarjeta del cliente" style="edgeLabel;html=1;align=center;verticalAlign=middle;resizable=0;points=[];labelBackgroundColor=none;" parent="nctrB8vf493KiRFq7X1_-37" vertex="1" connectable="0">
          <mxGeometry x="0.1847" relative="1" as="geometry">
            <mxPoint x="-122" y="-720" as="offset" />
          </mxGeometry>
        </mxCell>
        <mxCell id="nctrB8vf493KiRFq7X1_-44" style="edgeStyle=orthogonalEdgeStyle;rounded=0;orthogonalLoop=1;jettySize=auto;html=1;curved=0;entryX=0.517;entryY=0.857;entryDx=0;entryDy=0;entryPerimeter=0;exitX=0.504;exitY=0.853;exitDx=0;exitDy=0;exitPerimeter=0;" parent="nctrB8vf493KiRFq7X1_-12" edge="1">
          <mxGeometry relative="1" as="geometry">
            <mxPoint x="1326.6480000000001" y="1908.7720000000008" as="sourcePoint" />
            <mxPoint x="1514.0040000000004" y="1908.6980000000003" as="targetPoint" />
            <Array as="points" />
          </mxGeometry>
        </mxCell>
        <mxCell id="nctrB8vf493KiRFq7X1_-49" style="edgeStyle=orthogonalEdgeStyle;rounded=0;orthogonalLoop=1;jettySize=auto;html=1;curved=0;entryX=0.503;entryY=0.853;entryDx=0;entryDy=0;entryPerimeter=0;" parent="nctrB8vf493KiRFq7X1_-12" edge="1">
          <mxGeometry relative="1" as="geometry">
            <mxPoint x="306.97368421052624" y="1748.21052631579" as="sourcePoint" />
            <mxPoint x="618.9829999999997" y="1748.232" as="targetPoint" />
            <Array as="points">
              <mxPoint x="590" y="1748" />
            </Array>
          </mxGeometry>
        </mxCell>
        <mxCell id="nctrB8vf493KiRFq7X1_-50" value="&lt;div&gt;&lt;br&gt;&lt;/div&gt;" style="edgeLabel;html=1;align=left;verticalAlign=middle;resizable=0;points=[];labelBackgroundColor=#FFD966;" parent="nctrB8vf493KiRFq7X1_-49" vertex="1" connectable="0">
          <mxGeometry x="-0.0246" y="2" relative="1" as="geometry">
            <mxPoint x="-72" y="3" as="offset" />
          </mxGeometry>
        </mxCell>
        <mxCell id="nctrB8vf493KiRFq7X1_-53" style="edgeStyle=orthogonalEdgeStyle;rounded=0;orthogonalLoop=1;jettySize=auto;html=1;curved=0;exitX=0.503;exitY=0.905;exitDx=0;exitDy=0;exitPerimeter=0;entryX=0.493;entryY=0.833;entryDx=0;entryDy=0;entryPerimeter=0;" parent="nctrB8vf493KiRFq7X1_-12" edge="1">
          <mxGeometry relative="1" as="geometry">
            <mxPoint x="1143.23" y="1866.369999999999" as="sourcePoint" />
            <mxPoint x="1324.8659999999995" y="1866.2920000000013" as="targetPoint" />
            <Array as="points">
              <mxPoint x="1290" y="1866" />
            </Array>
          </mxGeometry>
        </mxCell>
        <mxCell id="nctrB8vf493KiRFq7X1_-83" value="" style="html=1;verticalAlign=bottom;endArrow=block;curved=0;rounded=0;labelBackgroundColor=none;" parent="nctrB8vf493KiRFq7X1_-12" edge="1">
          <mxGeometry x="0.0021" width="80" relative="1" as="geometry">
            <mxPoint x="304.6428571428569" y="770.5" as="sourcePoint" />
            <mxPoint x="625.5" y="770.5" as="targetPoint" />
            <mxPoint as="offset" />
          </mxGeometry>
        </mxCell>
        <mxCell id="nctrB8vf493KiRFq7X1_-84" value="" style="edgeStyle=elbowEdgeStyle;fontSize=12;html=1;endArrow=blockThin;endFill=1;rounded=0;" parent="nctrB8vf493KiRFq7X1_-12" edge="1">
          <mxGeometry width="160" relative="1" as="geometry">
            <mxPoint x="787.6428571428569" y="846" as="sourcePoint" />
            <mxPoint x="960" y="846" as="targetPoint" />
            <Array as="points">
              <mxPoint x="850" y="833" />
            </Array>
          </mxGeometry>
        </mxCell>
        <mxCell id="nctrB8vf493KiRFq7X1_-85" value="" style="html=1;points=[[0,0,0,0,5],[0,1,0,0,-5],[1,0,0,0,5],[1,1,0,0,-5]];perimeter=orthogonalPerimeter;outlineConnect=0;targetShapes=umlLifeline;portConstraint=eastwest;newEdgeStyle={&quot;curved&quot;:0,&quot;rounded&quot;:0};verticalAlign=top;" parent="nctrB8vf493KiRFq7X1_-12" vertex="1">
          <mxGeometry x="1510.25" y="933.5" width="10" height="91.5" as="geometry" />
        </mxCell>
        <mxCell id="nctrB8vf493KiRFq7X1_-87" style="edgeStyle=orthogonalEdgeStyle;rounded=0;orthogonalLoop=1;jettySize=auto;html=1;curved=0;" parent="nctrB8vf493KiRFq7X1_-12" edge="1">
          <mxGeometry relative="1" as="geometry">
            <mxPoint x="960" y="875" as="sourcePoint" />
            <mxPoint x="1140" y="875" as="targetPoint" />
          </mxGeometry>
        </mxCell>
        <mxCell id="nctrB8vf493KiRFq7X1_-88" value="Consulta API PLARD&lt;div&gt;&lt;strong style=&quot;background-color: initial;&quot;&gt;TBD&lt;/strong&gt;&lt;br&gt;&lt;/div&gt;&lt;div&gt;¿Revisar?&lt;/div&gt;" style="edgeLabel;html=1;align=center;verticalAlign=middle;resizable=0;points=[];labelBackgroundColor=none;fontStyle=1" parent="nctrB8vf493KiRFq7X1_-87" vertex="1" connectable="0">
          <mxGeometry x="-0.3434" y="-2" relative="1" as="geometry">
            <mxPoint x="29" y="-25" as="offset" />
          </mxGeometry>
        </mxCell>
        <mxCell id="nctrB8vf493KiRFq7X1_-89" style="edgeStyle=orthogonalEdgeStyle;rounded=0;orthogonalLoop=1;jettySize=auto;html=1;curved=0;entryX=0;entryY=0;entryDx=0;entryDy=5;entryPerimeter=0;" parent="nctrB8vf493KiRFq7X1_-12" edge="1">
          <mxGeometry relative="1" as="geometry">
            <mxPoint x="1140.3928571428569" y="908.75" as="sourcePoint" />
            <mxPoint x="1329.75" y="908.75" as="targetPoint" />
            <Array as="points">
              <mxPoint x="1220" y="909" />
              <mxPoint x="1220" y="909" />
            </Array>
          </mxGeometry>
        </mxCell>
        <mxCell id="nctrB8vf493KiRFq7X1_-90" value="Consulta trx LMCH" style="edgeLabel;html=1;align=center;verticalAlign=middle;resizable=0;points=[];" parent="nctrB8vf493KiRFq7X1_-89" vertex="1" connectable="0">
          <mxGeometry x="-0.0706" relative="1" as="geometry">
            <mxPoint x="16" y="-9" as="offset" />
          </mxGeometry>
        </mxCell>
        <mxCell id="nctrB8vf493KiRFq7X1_-91" style="edgeStyle=orthogonalEdgeStyle;rounded=0;orthogonalLoop=1;jettySize=auto;html=1;curved=0;exitX=0.502;exitY=0.389;exitDx=0;exitDy=0;exitPerimeter=0;entryX=0.506;entryY=0.389;entryDx=0;entryDy=0;entryPerimeter=0;" parent="nctrB8vf493KiRFq7X1_-12" edge="1">
          <mxGeometry relative="1" as="geometry">
            <mxPoint x="618.8220000000001" y="807.2160000000003" as="sourcePoint" />
            <mxPoint x="790.96" y="807.2160000000003" as="targetPoint" />
            <Array as="points" />
          </mxGeometry>
        </mxCell>
        <mxCell id="nctrB8vf493KiRFq7X1_-93" style="edgeStyle=orthogonalEdgeStyle;rounded=0;orthogonalLoop=1;jettySize=auto;html=1;curved=0;" parent="nctrB8vf493KiRFq7X1_-12" edge="1">
          <mxGeometry relative="1" as="geometry">
            <mxPoint x="1323.6428571428564" y="939" as="sourcePoint" />
            <mxPoint x="1510" y="939" as="targetPoint" />
            <Array as="points">
              <mxPoint x="1463" y="939" />
            </Array>
          </mxGeometry>
        </mxCell>
        <mxCell id="nctrB8vf493KiRFq7X1_-94" style="edgeStyle=orthogonalEdgeStyle;rounded=0;orthogonalLoop=1;jettySize=auto;html=1;curved=0;" parent="nctrB8vf493KiRFq7X1_-12" edge="1">
          <mxGeometry relative="1" as="geometry">
            <mxPoint x="1510.25" y="1013" as="sourcePoint" />
            <mxPoint x="306" y="1013" as="targetPoint" />
            <Array as="points">
              <mxPoint x="619.5" y="1013" />
              <mxPoint x="619.5" y="1013" />
            </Array>
          </mxGeometry>
        </mxCell>
        <mxCell id="nctrB8vf493KiRFq7X1_-95" value="Valida informacion de la tarjeta del cliente" style="edgeLabel;html=1;align=center;verticalAlign=middle;resizable=0;points=[];" parent="nctrB8vf493KiRFq7X1_-94" vertex="1" connectable="0">
          <mxGeometry x="0.1847" relative="1" as="geometry">
            <mxPoint x="63" y="-13" as="offset" />
          </mxGeometry>
        </mxCell>
        <mxCell id="pCUDI1BJ3AaRnasVNfEv-4" value="" style="endArrow=none;dashed=1;html=1;rounded=0;exitX=0;exitY=0.856;exitDx=0;exitDy=0;exitPerimeter=0;entryX=1;entryY=0.852;entryDx=0;entryDy=0;entryPerimeter=0;" edge="1" parent="nctrB8vf493KiRFq7X1_-12">
          <mxGeometry width="50" height="50" relative="1" as="geometry">
            <mxPoint x="230" y="1586.6200000000003" as="sourcePoint" />
            <mxPoint x="1592.25" y="1582.9999999999995" as="targetPoint" />
          </mxGeometry>
        </mxCell>
        <mxCell id="pCUDI1BJ3AaRnasVNfEv-5" value="&lt;h1 style=&quot;margin-top: 0px;&quot;&gt;&lt;font style=&quot;font-size: 17px;&quot;&gt;else&lt;/font&gt;&lt;/h1&gt;&lt;h1 style=&quot;margin-top: 0px;&quot;&gt;&lt;br&gt;&lt;/h1&gt;" style="text;html=1;whiteSpace=wrap;overflow=hidden;rounded=0;" vertex="1" parent="nctrB8vf493KiRFq7X1_-12">
          <mxGeometry x="251.75" y="1593.0000000000002" width="49.25" height="40" as="geometry" />
        </mxCell>
        <mxCell id="pCUDI1BJ3AaRnasVNfEv-6" value="&lt;h1 style=&quot;text-align: left; margin-top: 0px;&quot;&gt;&lt;span style=&quot;background-color: initial; font-weight: normal;&quot;&gt;&lt;font style=&quot;font-size: 11px;&quot;&gt;BIN = Tarjeta Santander Nacional&lt;/font&gt;&lt;/span&gt;&lt;/h1&gt;" style="text;html=1;align=center;verticalAlign=middle;whiteSpace=wrap;rounded=0;fontSize=8;" vertex="1" parent="nctrB8vf493KiRFq7X1_-12">
          <mxGeometry x="310" y="1611" width="180" height="18" as="geometry" />
        </mxCell>
        <mxCell id="pCUDI1BJ3AaRnasVNfEv-8" style="edgeStyle=orthogonalEdgeStyle;rounded=0;orthogonalLoop=1;jettySize=auto;html=1;curved=0;exitX=0.5;exitY=0.631;exitDx=0;exitDy=0;exitPerimeter=0;entryX=0.499;entryY=0.646;entryDx=0;entryDy=0;entryPerimeter=0;" edge="1" parent="nctrB8vf493KiRFq7X1_-12">
          <mxGeometry relative="1" as="geometry">
            <mxPoint x="307" y="1298.1240000000003" as="sourcePoint" />
            <mxPoint x="306.80999999999995" y="1327.4339999999997" as="targetPoint" />
            <Array as="points">
              <mxPoint x="440" y="1298" />
              <mxPoint x="440" y="1327" />
            </Array>
          </mxGeometry>
        </mxCell>
        <mxCell id="pCUDI1BJ3AaRnasVNfEv-13" style="edgeStyle=orthogonalEdgeStyle;rounded=0;orthogonalLoop=1;jettySize=auto;html=1;curved=0;exitX=0.507;exitY=0.6;exitDx=0;exitDy=0;exitPerimeter=0;entryX=0.503;entryY=0.615;entryDx=0;entryDy=0;entryPerimeter=0;" edge="1" parent="nctrB8vf493KiRFq7X1_-12">
          <mxGeometry relative="1" as="geometry">
            <mxPoint x="308.3299999999999" y="1241.3999999999996" as="sourcePoint" />
            <mxPoint x="307.56999999999994" y="1270.7099999999991" as="targetPoint" />
            <Array as="points">
              <mxPoint x="440" y="1241" />
              <mxPoint x="440" y="1270" />
              <mxPoint x="330" y="1270" />
            </Array>
          </mxGeometry>
        </mxCell>
        <mxCell id="pCUDI1BJ3AaRnasVNfEv-14" style="edgeStyle=orthogonalEdgeStyle;rounded=0;orthogonalLoop=1;jettySize=auto;html=1;curved=0;exitX=0.5;exitY=0.678;exitDx=0;exitDy=0;exitPerimeter=0;entryX=1.062;entryY=0.67;entryDx=0;entryDy=0;entryPerimeter=0;dashed=1;" edge="1" parent="nctrB8vf493KiRFq7X1_-12">
          <mxGeometry relative="1" as="geometry">
            <mxPoint x="307" y="1375.812" as="sourcePoint" />
            <mxPoint x="110.61999999999989" y="1377.33" as="targetPoint" />
            <Array as="points">
              <mxPoint x="250" y="1376" />
              <mxPoint x="250" y="1377" />
            </Array>
          </mxGeometry>
        </mxCell>
        <mxCell id="pCUDI1BJ3AaRnasVNfEv-15" value="&lt;span style=&quot;&quot;&gt;Muestra menú RED&amp;nbsp;&lt;/span&gt;&lt;div style=&quot;&quot;&gt;ATM&lt;/div&gt;" style="edgeLabel;html=1;align=center;verticalAlign=middle;resizable=0;points=[];labelBackgroundColor=none;" vertex="1" connectable="0" parent="pCUDI1BJ3AaRnasVNfEv-14">
          <mxGeometry x="-0.0083" y="-2" relative="1" as="geometry">
            <mxPoint x="-35" y="-13" as="offset" />
          </mxGeometry>
        </mxCell>
        <mxCell id="pCUDI1BJ3AaRnasVNfEv-17" value="" style="endArrow=none;dashed=1;html=1;rounded=0;exitX=0;exitY=0.717;exitDx=0;exitDy=0;exitPerimeter=0;entryX=1.001;entryY=0.717;entryDx=0;entryDy=0;entryPerimeter=0;" edge="1" parent="nctrB8vf493KiRFq7X1_-12" source="nctrB8vf493KiRFq7X1_-33" target="nctrB8vf493KiRFq7X1_-33">
          <mxGeometry width="50" height="50" relative="1" as="geometry">
            <mxPoint x="241.95999999999978" y="1403.504" as="sourcePoint" />
            <mxPoint x="586" y="1403" as="targetPoint" />
          </mxGeometry>
        </mxCell>
        <mxCell id="pCUDI1BJ3AaRnasVNfEv-18" value="&lt;h1 style=&quot;margin-top: 0px;&quot;&gt;&lt;font style=&quot;font-size: 17px;&quot;&gt;else&lt;/font&gt;&lt;/h1&gt;&lt;h1 style=&quot;margin-top: 0px;&quot;&gt;&lt;br&gt;&lt;/h1&gt;" style="text;html=1;whiteSpace=wrap;overflow=hidden;rounded=0;" vertex="1" parent="nctrB8vf493KiRFq7X1_-12">
          <mxGeometry x="251.75" y="1401" width="49.25" height="28" as="geometry" />
        </mxCell>
        <mxCell id="pCUDI1BJ3AaRnasVNfEv-19" value="[BIN &amp;lt;&amp;gt;&amp;nbsp; Grupo Santander Internacional&lt;span style=&quot;background-color: initial;&quot;&gt;]&lt;/span&gt;" style="edgeLabel;html=1;align=center;verticalAlign=middle;resizable=0;points=[];labelBackgroundColor=none;" vertex="1" connectable="0" parent="nctrB8vf493KiRFq7X1_-12">
          <mxGeometry x="410.0000000000002" y="1423.004104648533" as="geometry" />
        </mxCell>
        <mxCell id="pCUDI1BJ3AaRnasVNfEv-20" style="edgeStyle=orthogonalEdgeStyle;rounded=0;orthogonalLoop=1;jettySize=auto;html=1;curved=0;exitX=0.504;exitY=0.728;exitDx=0;exitDy=0;exitPerimeter=0;entryX=0.506;entryY=0.744;entryDx=0;entryDy=0;entryPerimeter=0;" edge="1" parent="nctrB8vf493KiRFq7X1_-12">
          <mxGeometry relative="1" as="geometry">
            <mxPoint x="307.75999999999976" y="1473.5120000000006" as="sourcePoint" />
            <mxPoint x="308.1399999999999" y="1504.7759999999998" as="targetPoint" />
            <Array as="points">
              <mxPoint x="441" y="1474" />
              <mxPoint x="441" y="1505" />
            </Array>
          </mxGeometry>
        </mxCell>
        <mxCell id="pCUDI1BJ3AaRnasVNfEv-21" value="Prepara menú RED" style="edgeLabel;html=1;align=center;verticalAlign=middle;resizable=0;points=[];" vertex="1" connectable="0" parent="pCUDI1BJ3AaRnasVNfEv-20">
          <mxGeometry x="-0.0083" y="-2" relative="1" as="geometry">
            <mxPoint x="-58" y="-23" as="offset" />
          </mxGeometry>
        </mxCell>
        <mxCell id="pCUDI1BJ3AaRnasVNfEv-22" style="edgeStyle=orthogonalEdgeStyle;rounded=0;orthogonalLoop=1;jettySize=auto;html=1;curved=0;exitX=0.495;exitY=0.745;exitDx=0;exitDy=0;exitPerimeter=0;entryX=1.055;entryY=0.741;entryDx=0;entryDy=0;entryPerimeter=0;dashed=1;" edge="1" parent="nctrB8vf493KiRFq7X1_-12">
          <mxGeometry relative="1" as="geometry">
            <mxPoint x="306.0500000000002" y="1506.7299999999996" as="sourcePoint" />
            <mxPoint x="110.55000000000018" y="1505.059000000001" as="targetPoint" />
            <Array as="points">
              <mxPoint x="251" y="1507" />
              <mxPoint x="251" y="1505" />
            </Array>
          </mxGeometry>
        </mxCell>
        <mxCell id="pCUDI1BJ3AaRnasVNfEv-23" value="&lt;span style=&quot;&quot;&gt;Muestra menú RED&amp;nbsp;&lt;/span&gt;&lt;div style=&quot;&quot;&gt;ATM&lt;/div&gt;" style="edgeLabel;html=1;align=center;verticalAlign=middle;resizable=0;points=[];labelBackgroundColor=none;" vertex="1" connectable="0" parent="pCUDI1BJ3AaRnasVNfEv-22">
          <mxGeometry x="-0.0083" y="-2" relative="1" as="geometry">
            <mxPoint x="-35" y="-13" as="offset" />
          </mxGeometry>
        </mxCell>
        <mxCell id="pCUDI1BJ3AaRnasVNfEv-24" style="edgeStyle=orthogonalEdgeStyle;rounded=0;orthogonalLoop=1;jettySize=auto;html=1;curved=0;exitX=0.5;exitY=0.82;exitDx=0;exitDy=0;exitPerimeter=0;" edge="1" parent="nctrB8vf493KiRFq7X1_-12">
          <mxGeometry relative="1" as="geometry">
            <mxPoint x="307" y="1662.2799999999988" as="sourcePoint" />
            <mxPoint x="304.6428571428569" y="1691.1428571428569" as="targetPoint" />
            <Array as="points">
              <mxPoint x="512" y="1662" />
              <mxPoint x="512" y="1691" />
            </Array>
          </mxGeometry>
        </mxCell>
        <mxCell id="pCUDI1BJ3AaRnasVNfEv-25" value="Consulta informacion del cliente" style="edgeLabel;html=1;align=center;verticalAlign=middle;resizable=0;points=[];labelBackgroundColor=none;" vertex="1" connectable="0" parent="pCUDI1BJ3AaRnasVNfEv-24">
          <mxGeometry x="-0.0246" y="2" relative="1" as="geometry">
            <mxPoint x="-101" y="66" as="offset" />
          </mxGeometry>
        </mxCell>
        <mxCell id="pCUDI1BJ3AaRnasVNfEv-27" value="Consulta RIB de la tarjeta" style="edgeLabel;html=1;align=center;verticalAlign=middle;resizable=0;points=[];labelBackgroundColor=none;" vertex="1" connectable="0" parent="nctrB8vf493KiRFq7X1_-12">
          <mxGeometry x="459.9961552140331" y="763.5047344081868" as="geometry" />
        </mxCell>
        <mxCell id="pCUDI1BJ3AaRnasVNfEv-29" value="Envía solicitud de petición&amp;nbsp;&lt;div&gt;de consulta&lt;/div&gt;" style="edgeLabel;html=1;align=center;verticalAlign=middle;resizable=0;points=[];labelBackgroundColor=none;" vertex="1" connectable="0" parent="nctrB8vf493KiRFq7X1_-12">
          <mxGeometry x="879.996155214033" y="832.5047344081868" as="geometry" />
        </mxCell>
        <mxCell id="pCUDI1BJ3AaRnasVNfEv-30" value="Envía solicitud de petición&amp;nbsp;&lt;div&gt;de consulta&lt;/div&gt;" style="edgeLabel;html=1;align=center;verticalAlign=middle;resizable=0;points=[];labelBackgroundColor=none;" vertex="1" connectable="0" parent="nctrB8vf493KiRFq7X1_-12">
          <mxGeometry x="709.996155214033" y="793.0047344081868" as="geometry" />
        </mxCell>
        <mxCell id="pCUDI1BJ3AaRnasVNfEv-31" value="" style="html=1;points=[[0,0,0,0,5],[0,1,0,0,-5],[1,0,0,0,5],[1,1,0,0,-5]];perimeter=orthogonalPerimeter;outlineConnect=0;targetShapes=umlLifeline;portConstraint=eastwest;newEdgeStyle={&quot;curved&quot;:0,&quot;rounded&quot;:0};labelBackgroundColor=#E8A6A6;" vertex="1" parent="nctrB8vf493KiRFq7X1_-12">
          <mxGeometry x="790" y="803" width="10" height="49" as="geometry" />
        </mxCell>
        <mxCell id="pCUDI1BJ3AaRnasVNfEv-32" value="" style="html=1;points=[[0,0,0,0,5],[0,1,0,0,-5],[1,0,0,0,5],[1,1,0,0,-5]];perimeter=orthogonalPerimeter;outlineConnect=0;targetShapes=umlLifeline;portConstraint=eastwest;newEdgeStyle={&quot;curved&quot;:0,&quot;rounded&quot;:0};labelBackgroundColor=#E8A6A6;sketch=1;curveFitting=1;jiggle=2;fillColor=#f8cecc;strokeColor=#b85450;" vertex="1" parent="nctrB8vf493KiRFq7X1_-12">
          <mxGeometry x="626" y="765.5" width="10" height="49" as="geometry" />
        </mxCell>
        <mxCell id="pCUDI1BJ3AaRnasVNfEv-33" value="" style="html=1;points=[[0,0,0,0,5],[0,1,0,0,-5],[1,0,0,0,5],[1,1,0,0,-5]];perimeter=orthogonalPerimeter;outlineConnect=0;targetShapes=umlLifeline;portConstraint=eastwest;newEdgeStyle={&quot;curved&quot;:0,&quot;rounded&quot;:0};labelBackgroundColor=#E8A6A6;" vertex="1" parent="nctrB8vf493KiRFq7X1_-12">
          <mxGeometry x="1140" y="870" width="10" height="49" as="geometry" />
        </mxCell>
        <mxCell id="pCUDI1BJ3AaRnasVNfEv-41" value="Consulta informacion de RIBs" style="edgeLabel;html=1;align=center;verticalAlign=middle;resizable=0;points=[];labelBackgroundColor=none;" vertex="1" connectable="0" parent="nctrB8vf493KiRFq7X1_-12">
          <mxGeometry x="1419.996155214033" y="933.5047344081868" as="geometry">
            <mxPoint x="-3" y="-3" as="offset" />
          </mxGeometry>
        </mxCell>
        <mxCell id="nctrB8vf493KiRFq7X1_-47" style="edgeStyle=orthogonalEdgeStyle;rounded=0;orthogonalLoop=1;jettySize=auto;html=1;curved=0;exitX=0.496;exitY=0.868;exitDx=0;exitDy=0;exitPerimeter=0;" parent="nctrB8vf493KiRFq7X1_-12" edge="1">
          <mxGeometry relative="1" as="geometry">
            <Array as="points">
              <mxPoint x="730" y="1784" />
              <mxPoint x="730" y="1784" />
            </Array>
            <mxPoint x="617.8559999999998" y="1784.3919999999998" as="sourcePoint" />
            <mxPoint x="789.5" y="1784.3919999999998" as="targetPoint" />
          </mxGeometry>
        </mxCell>
        <mxCell id="nctrB8vf493KiRFq7X1_-48" value="&lt;span style=&quot;&quot;&gt;Envía solicitud de petición&amp;nbsp;&lt;/span&gt;&lt;div style=&quot;&quot;&gt;de consulta&lt;/div&gt;" style="edgeLabel;html=1;align=center;verticalAlign=middle;resizable=0;points=[];labelBackgroundColor=none;" parent="nctrB8vf493KiRFq7X1_-47" vertex="1" connectable="0">
          <mxGeometry x="-0.3279" relative="1" as="geometry">
            <mxPoint x="34" y="-16" as="offset" />
          </mxGeometry>
        </mxCell>
        <mxCell id="pCUDI1BJ3AaRnasVNfEv-43" style="edgeStyle=orthogonalEdgeStyle;rounded=0;orthogonalLoop=1;jettySize=auto;html=1;curved=0;exitX=0.498;exitY=0.887;exitDx=0;exitDy=0;exitPerimeter=0;entryX=0.513;entryY=0.886;entryDx=0;entryDy=0;entryPerimeter=0;" edge="1" parent="nctrB8vf493KiRFq7X1_-12">
          <mxGeometry relative="1" as="geometry">
            <Array as="points">
              <mxPoint x="897" y="1821" />
            </Array>
            <mxPoint x="789.6799999999998" y="1821.3280000000013" as="sourcePoint" />
            <mxPoint x="965.0799999999999" y="1820.384" as="targetPoint" />
          </mxGeometry>
        </mxCell>
        <mxCell id="pCUDI1BJ3AaRnasVNfEv-44" value="&lt;span style=&quot;&quot;&gt;Envía petición&amp;nbsp;&lt;/span&gt;&lt;span style=&quot;background-color: initial;&quot;&gt;de consulta&lt;/span&gt;" style="edgeLabel;html=1;align=center;verticalAlign=middle;resizable=0;points=[];labelBackgroundColor=none;" vertex="1" connectable="0" parent="pCUDI1BJ3AaRnasVNfEv-43">
          <mxGeometry x="-0.3279" relative="1" as="geometry">
            <mxPoint x="31" y="-10" as="offset" />
          </mxGeometry>
        </mxCell>
        <mxCell id="pCUDI1BJ3AaRnasVNfEv-48" value="&lt;span style=&quot;color: rgb(0, 0, 0); font-family: Helvetica; font-size: 11px; font-style: normal; font-variant-ligatures: normal; font-variant-caps: normal; font-weight: 400; letter-spacing: normal; orphans: 2; text-indent: 0px; text-transform: none; widows: 2; word-spacing: 0px; -webkit-text-stroke-width: 0px; white-space: nowrap; background-color: rgb(251, 251, 251); text-decoration-thickness: initial; text-decoration-style: initial; text-decoration-color: initial; float: none; display: inline !important;&quot;&gt;Consulta API PLARD&amp;nbsp;&lt;/span&gt;&lt;div style=&quot;font-size: 11px;&quot;&gt;&lt;span style=&quot;font-size: 11px; text-wrap: nowrap;&quot;&gt;&lt;br&gt;&lt;/span&gt;&lt;div style=&quot;forced-color-adjust: none; color: rgb(0, 0, 0); font-family: Helvetica; font-style: normal; font-variant-ligatures: normal; font-variant-caps: normal; font-weight: 400; letter-spacing: normal; orphans: 2; text-indent: 0px; text-transform: none; widows: 2; word-spacing: 0px; -webkit-text-stroke-width: 0px; white-space: nowrap; background-color: rgb(251, 251, 251); text-decoration-thickness: initial; text-decoration-style: initial; text-decoration-color: initial;&quot;&gt;&lt;span style=&quot;forced-color-adjust: none; color: rgb(33, 37, 41); font-family: Santander, sans-serif; text-wrap: wrap;&quot;&gt;Life Cycle services v1.0.0&lt;/span&gt;&lt;br style=&quot;forced-color-adjust: none;&quot;&gt;&lt;/div&gt;&lt;div style=&quot;forced-color-adjust: none; color: rgb(0, 0, 0); font-family: Helvetica; font-style: normal; font-variant-ligatures: normal; font-variant-caps: normal; font-weight: 400; letter-spacing: normal; orphans: 2; text-indent: 0px; text-transform: none; widows: 2; word-spacing: 0px; -webkit-text-stroke-width: 0px; white-space: nowrap; background-color: rgb(251, 251, 251); text-decoration-thickness: initial; text-decoration-style: initial; text-decoration-color: initial;&quot;&gt;&lt;span style=&quot;forced-color-adjust: none; text-wrap: wrap;&quot;&gt;&lt;font style=&quot;forced-color-adjust: none; font-size: 11px;&quot; color=&quot;#212529&quot; face=&quot;Santander, sans-serif&quot;&gt;&lt;div style=&quot;forced-color-adjust: none;&quot;&gt;/v3/devices/details&lt;/div&gt;&lt;div style=&quot;forced-color-adjust: none;&quot;&gt;&lt;div style=&quot;forced-color-adjust: none; color: rgb(0, 0, 0); font-family: Helvetica; text-wrap: nowrap;&quot;&gt;&lt;span style=&quot;forced-color-adjust: none; color: rgb(33, 37, 41); font-family: Santander, sans-serif; text-wrap: wrap;&quot;&gt;CardInquiry&lt;/span&gt;&lt;/div&gt;&lt;/div&gt;&lt;/font&gt;&lt;/span&gt;&lt;/div&gt;&lt;/div&gt;" style="text;whiteSpace=wrap;html=1;align=center;" vertex="1" parent="nctrB8vf493KiRFq7X1_-12">
          <mxGeometry x="980" y="1797" width="140" height="80" as="geometry" />
        </mxCell>
        <mxCell id="pCUDI1BJ3AaRnasVNfEv-49" style="edgeStyle=orthogonalEdgeStyle;rounded=0;orthogonalLoop=1;jettySize=auto;html=1;curved=0;exitX=0.483;exitY=0.812;exitDx=0;exitDy=0;exitPerimeter=0;entryX=-0.021;entryY=0.046;entryDx=0;entryDy=0;entryPerimeter=0;" edge="1" parent="nctrB8vf493KiRFq7X1_-12" target="pCUDI1BJ3AaRnasVNfEv-51">
          <mxGeometry relative="1" as="geometry">
            <Array as="points" />
            <mxPoint x="965.2800000000002" y="1821.688" as="sourcePoint" />
            <mxPoint x="1140" y="1822" as="targetPoint" />
          </mxGeometry>
        </mxCell>
        <mxCell id="nctrB8vf493KiRFq7X1_-41" style="edgeStyle=orthogonalEdgeStyle;rounded=0;orthogonalLoop=1;jettySize=auto;html=1;curved=0;exitX=-0.017;exitY=0.972;exitDx=0;exitDy=0;exitPerimeter=0;" parent="nctrB8vf493KiRFq7X1_-12" source="nctrB8vf493KiRFq7X1_-36" edge="1">
          <mxGeometry relative="1" as="geometry">
            <mxPoint x="968" y="2004" as="targetPoint" />
          </mxGeometry>
        </mxCell>
        <mxCell id="nctrB8vf493KiRFq7X1_-42" value="Envia informacion del cliente" style="edgeLabel;html=1;align=center;verticalAlign=middle;resizable=0;points=[];" parent="nctrB8vf493KiRFq7X1_-41" vertex="1" connectable="0">
          <mxGeometry x="0.3975" y="1" relative="1" as="geometry">
            <mxPoint x="103" y="11" as="offset" />
          </mxGeometry>
        </mxCell>
        <mxCell id="pCUDI1BJ3AaRnasVNfEv-53" value="Consulta trx LMM8" style="edgeLabel;html=1;align=center;verticalAlign=middle;resizable=0;points=[];labelBackgroundColor=none;" vertex="1" connectable="0" parent="nctrB8vf493KiRFq7X1_-12">
          <mxGeometry x="1234.9981498247325" y="1856.0035497588342" as="geometry" />
        </mxCell>
        <mxCell id="pCUDI1BJ3AaRnasVNfEv-63" value="Consulta informacion del cliente" style="edgeLabel;html=1;align=center;verticalAlign=middle;resizable=0;points=[];labelBackgroundColor=none;" vertex="1" connectable="0" parent="nctrB8vf493KiRFq7X1_-12">
          <mxGeometry x="1419.996155214033" y="1899.0047344081868" as="geometry">
            <mxPoint x="4" y="-3" as="offset" />
          </mxGeometry>
        </mxCell>
        <mxCell id="pCUDI1BJ3AaRnasVNfEv-64" value="Valida informacion de tarjeta" style="edgeLabel;html=1;align=center;verticalAlign=middle;resizable=0;points=[];labelBackgroundColor=none;" vertex="1" connectable="0" parent="nctrB8vf493KiRFq7X1_-12">
          <mxGeometry x="410" y="1653.0033263956648" as="geometry" />
        </mxCell>
        <mxCell id="pCUDI1BJ3AaRnasVNfEv-65" value="Obtiene informacion del cliente" style="edgeLabel;html=1;align=center;verticalAlign=middle;resizable=0;points=[];" vertex="1" connectable="0" parent="nctrB8vf493KiRFq7X1_-12">
          <mxGeometry x="500.0020735861583" y="2015.998801330854" as="geometry">
            <mxPoint x="10" y="2" as="offset" />
          </mxGeometry>
        </mxCell>
        <mxCell id="pCUDI1BJ3AaRnasVNfEv-72" style="edgeStyle=orthogonalEdgeStyle;rounded=0;orthogonalLoop=1;jettySize=auto;html=1;curved=0;exitX=0.501;exitY=0.945;exitDx=0;exitDy=0;exitPerimeter=0;entryX=0.498;entryY=0.957;entryDx=0;entryDy=0;entryPerimeter=0;" edge="1" parent="nctrB8vf493KiRFq7X1_-12" source="nctrB8vf493KiRFq7X1_-18" target="nctrB8vf493KiRFq7X1_-18">
          <mxGeometry relative="1" as="geometry">
            <mxPoint x="310.95000000000005" y="2093.4400000000005" as="sourcePoint" />
            <mxPoint x="310" y="2119.6219999999994" as="targetPoint" />
            <Array as="points">
              <mxPoint x="354" y="2093" />
              <mxPoint x="424" y="2093" />
              <mxPoint x="424" y="2118" />
            </Array>
          </mxGeometry>
        </mxCell>
        <mxCell id="pCUDI1BJ3AaRnasVNfEv-73" value="Valida BIN Excento de comision" style="edgeLabel;html=1;align=left;verticalAlign=middle;resizable=0;points=[];labelBackgroundColor=none;" vertex="1" connectable="0" parent="pCUDI1BJ3AaRnasVNfEv-72">
          <mxGeometry x="-0.0246" y="2" relative="1" as="geometry">
            <mxPoint x="-76" y="-567" as="offset" />
          </mxGeometry>
        </mxCell>
        <mxCell id="pCUDI1BJ3AaRnasVNfEv-75" value="Valida información del Cliente&amp;nbsp;" style="edgeLabel;html=1;align=center;verticalAlign=middle;resizable=0;points=[];labelBackgroundColor=none;" vertex="1" connectable="0" parent="nctrB8vf493KiRFq7X1_-12">
          <mxGeometry x="401.9966666666666" y="2082.9966662332026" as="geometry" />
        </mxCell>
        <mxCell id="nctrB8vf493KiRFq7X1_-97" value="&lt;div&gt;REFERENCIA CU002&lt;/div&gt;&lt;div&gt;FIN FUNCIONALIDAD&lt;/div&gt;" style="text;html=1;strokeColor=none;fillColor=none;align=left;verticalAlign=middle;whiteSpace=wrap;rounded=0;fontColor=#999999;fontSize=6;" parent="nctrB8vf493KiRFq7X1_-12" vertex="1">
          <mxGeometry x="118" y="2128" width="80" height="24.5" as="geometry" />
        </mxCell>
        <mxCell id="pCUDI1BJ3AaRnasVNfEv-76" style="edgeStyle=orthogonalEdgeStyle;rounded=0;orthogonalLoop=1;jettySize=auto;html=1;curved=0;exitX=0.498;exitY=0.983;exitDx=0;exitDy=0;exitPerimeter=0;" edge="1" parent="nctrB8vf493KiRFq7X1_-12" source="nctrB8vf493KiRFq7X1_-18">
          <mxGeometry relative="1" as="geometry">
            <mxPoint x="297.00000000000017" y="2169.67" as="sourcePoint" />
            <mxPoint x="106" y="2118" as="targetPoint" />
            <Array as="points">
              <mxPoint x="307" y="2118" />
              <mxPoint x="107" y="2118" />
            </Array>
          </mxGeometry>
        </mxCell>
        <mxCell id="pCUDI1BJ3AaRnasVNfEv-77" value="Solicita NIP de la tarjeta" style="edgeLabel;html=1;align=center;verticalAlign=middle;resizable=0;points=[];labelBackgroundColor=none;" vertex="1" connectable="0" parent="pCUDI1BJ3AaRnasVNfEv-76">
          <mxGeometry x="-0.0083" y="-2" relative="1" as="geometry">
            <mxPoint x="-63" y="-8" as="offset" />
          </mxGeometry>
        </mxCell>
        <mxCell id="nctrB8vf493KiRFq7X1_-36" value="" style="html=1;points=[[0,0,0,0,5],[0,1,0,0,-5],[1,0,0,0,5],[1,1,0,0,-5]];perimeter=orthogonalPerimeter;outlineConnect=0;targetShapes=umlLifeline;portConstraint=eastwest;newEdgeStyle={&quot;curved&quot;:0,&quot;rounded&quot;:0};verticalAlign=top;" parent="nctrB8vf493KiRFq7X1_-12" vertex="1">
          <mxGeometry x="1510.25" y="1901" width="10" height="106" as="geometry" />
        </mxCell>
        <mxCell id="pCUDI1BJ3AaRnasVNfEv-46" value="" style="html=1;points=[[0,0,0,0,5],[0,1,0,0,-5],[1,0,0,0,5],[1,1,0,0,-5]];perimeter=orthogonalPerimeter;outlineConnect=0;targetShapes=umlLifeline;portConstraint=eastwest;newEdgeStyle={&quot;curved&quot;:0,&quot;rounded&quot;:0};labelBackgroundColor=default;" vertex="1" parent="nctrB8vf493KiRFq7X1_-12">
          <mxGeometry x="960" y="1806" width="10" height="210" as="geometry" />
        </mxCell>
        <mxCell id="nctrB8vf493KiRFq7X1_-131" value="&lt;div style=&quot;font-size: 13px;&quot;&gt;&lt;div&gt;&lt;b&gt;Escenario 1:&amp;nbsp;Identifica información de la tarjeta del cliente&lt;/b&gt;&lt;/div&gt;&lt;div&gt;&lt;b&gt;&lt;br&gt;&lt;/b&gt;&lt;/div&gt;&lt;div style=&quot;font-size: 12px;&quot;&gt;El Cajero automático ATM identifica a través del PAN de la tarjeta la información origen de la tarjeta&amp;nbsp;&lt;span style=&quot;background-color: initial;&quot;&gt;del cliente&lt;/span&gt;&lt;span style=&quot;background-color: initial;&quot;&gt;&amp;nbsp;&lt;/span&gt;&lt;span style=&quot;background-color: initial;&quot;&gt;a través del BIN si es una tarjeta registrada activa en PLARD.&amp;nbsp;&lt;/span&gt;&lt;/div&gt;&lt;div style=&quot;font-size: 12px;&quot;&gt;&lt;span style=&quot;background-color: initial;&quot;&gt;&lt;br&gt;&lt;/span&gt;&lt;/div&gt;&lt;div style=&quot;font-size: 12px;&quot;&gt;&lt;i style=&quot;font-size: 13px; background-color: initial; border-color: var(--border-color); text-indent: -24px;&quot;&gt;1. BIN == PLARD&lt;/i&gt;&lt;span style=&quot;background-color: initial;&quot;&gt;&amp;nbsp;&lt;/span&gt;&lt;/div&gt;&lt;div style=&quot;font-size: 12px;&quot;&gt;&lt;br&gt;&lt;/div&gt;&lt;div style=&quot;font-size: 12px;&quot;&gt;&lt;i style=&quot;font-size: 13px; background-color: initial; border-color: var(--border-color); text-indent: -24px;&quot;&gt;2. Origen de la tarjeta = [Nacional || Internacional]&amp;nbsp;&lt;/i&gt;&lt;/div&gt;&lt;/div&gt;" style="text;html=1;strokeColor=#000000;fillColor=none;align=left;verticalAlign=top;whiteSpace=wrap;rounded=0;fontSize=12;strokeWidth=2;fontColor=#000000;" parent="1" vertex="1">
          <mxGeometry x="530" y="8903" width="440" height="197" as="geometry" />
        </mxCell>
        <mxCell id="nctrB8vf493KiRFq7X1_-132" value="Escenarios" style="rounded=0;whiteSpace=wrap;html=1;fillColor=#BAC8D3;strokeColor=#BAC8D3;fontColor=#ffffff;fontSize=15;fontStyle=1;align=center;" parent="1" vertex="1">
          <mxGeometry x="530" y="8862" width="440" height="39" as="geometry" />
        </mxCell>
        <mxCell id="nctrB8vf493KiRFq7X1_-133" value="&lt;div style=&quot;font-size: 13px;&quot;&gt;&lt;div&gt;&lt;b&gt;Escenario 2:&amp;nbsp;Valida excepción de pago de comisión por uso de ATM&lt;/b&gt;&lt;/div&gt;&lt;div&gt;&lt;br&gt;&lt;/div&gt;&lt;div style=&quot;font-size: 12px;&quot;&gt;El ATM realiza la validación para excepcionar el pago de comisión en tabla de RIBs por uso de cajero automática para Clientes Internacionales del Grupo Santander a través del consumo de la API DebitCardRIBs y la trx LMCH del core bancario.&lt;/div&gt;&lt;div style=&quot;font-size: 12px;&quot;&gt;&lt;br&gt;&lt;/div&gt;&lt;div style=&quot;font-size: 12px;&quot;&gt;&lt;i&gt;&lt;span style=&quot;background-color: initial; font-size: 13px; border-color: var(--border-color); text-indent: -24px;&quot;&gt;3. BIN PLARD = Tarjeta Grupo Santander Internacional &amp;amp;&amp;amp;&amp;nbsp;&lt;/span&gt;&lt;span style=&quot;background-color: initial; font-size: 13px; border-color: var(--border-color); text-indent: -24px;&quot;&gt;RIBs TABLE == BIN existente --&amp;gt; Sin pago comisión&amp;nbsp;&lt;/span&gt;&lt;/i&gt;&lt;/div&gt;&lt;/div&gt;" style="text;html=1;strokeColor=#000000;fillColor=none;align=left;verticalAlign=top;whiteSpace=wrap;rounded=0;fontSize=12;strokeWidth=2;fontColor=#000000;" parent="1" vertex="1">
          <mxGeometry x="530" y="9100" width="440" height="197" as="geometry" />
        </mxCell>
        <mxCell id="nctrB8vf493KiRFq7X1_-134" value="&lt;div style=&quot;font-size: 13px;&quot;&gt;&lt;div&gt;&lt;b&gt;Escenario 3:&amp;nbsp;Obtiene informacion de la tarjeta del cliente&amp;nbsp;&lt;/b&gt;&lt;/div&gt;&lt;div&gt;&lt;b&gt;&lt;br&gt;&lt;/b&gt;&lt;/div&gt;&lt;div style=&quot;font-size: 12px;&quot;&gt;El ATM extrae la informacion de la TDD del cliente una vez siendo identificado como Cliente externo o de Grupo Santander &lt;span style=&quot;background-color: initial;&quot;&gt;a través del consumo de la API DebitCardRIBs y la trx LMCH del core bancario,&amp;nbsp;&lt;/span&gt;&lt;span style=&quot;background-color: initial;&quot;&gt;para poder continuar con las operaciones deseadas por cliente dentro del flujo operativo de ATM.&lt;/span&gt;&lt;/div&gt;&lt;/div&gt;&lt;div style=&quot;&quot;&gt;&lt;br&gt;&lt;/div&gt;" style="text;html=1;strokeColor=#000000;fillColor=none;align=left;verticalAlign=top;whiteSpace=wrap;rounded=0;fontSize=12;strokeWidth=2;fontColor=#000000;" parent="1" vertex="1">
          <mxGeometry x="530" y="9297" width="440" height="197" as="geometry" />
        </mxCell>
        <mxCell id="nctrB8vf493KiRFq7X1_-135" value="&lt;div style=&quot;font-size: 13px;&quot;&gt;&lt;br&gt;&lt;/div&gt;" style="text;html=1;strokeColor=#000000;fillColor=none;align=left;verticalAlign=top;whiteSpace=wrap;rounded=0;fontSize=12;strokeWidth=2;fontColor=#000000;" parent="1" vertex="1">
          <mxGeometry x="1011" y="8901" width="309" height="589" as="geometry" />
        </mxCell>
        <mxCell id="nctrB8vf493KiRFq7X1_-136" value="trx" style="rounded=0;whiteSpace=wrap;html=1;fillColor=#BAC8D3;strokeColor=#BAC8D3;fontColor=#ffffff;fontSize=15;fontStyle=1;align=center;" parent="1" vertex="1">
          <mxGeometry x="1010" y="8860" width="310" height="39" as="geometry" />
        </mxCell>
        <mxCell id="nctrB8vf493KiRFq7X1_-137" value="LM88" style="rounded=0;whiteSpace=wrap;html=1;fontSize=14;fontStyle=1;verticalAlign=top;fillColor=#EEEEEE;strokeColor=#EEEEEE;" parent="1" vertex="1">
          <mxGeometry x="1028" y="9220" width="274" height="39" as="geometry" />
        </mxCell>
        <mxCell id="nctrB8vf493KiRFq7X1_-138" value="&lt;div style=&quot;&quot;&gt;&lt;b style=&quot;&quot;&gt;&lt;font style=&quot;font-size: 12px;&quot;&gt;Campo&lt;/font&gt;&lt;/b&gt;&lt;/div&gt;&lt;div style=&quot;&quot;&gt;&lt;font style=&quot;&quot;&gt;&lt;span style=&quot;font-size: 12px; -webkit-tap-highlight-color: transparent; color: rgb(60, 64, 67); font-family: Roboto, RobotoDraft, Helvetica, Arial, sans-serif; background-color: rgb(245, 245, 245);&quot; class=&quot;jCAhz&quot;&gt;&lt;span style=&quot;-webkit-tap-highlight-color: transparent;&quot; class=&quot;ryNqvb&quot;&gt;&lt;br&gt;&lt;/span&gt;&lt;/span&gt;&lt;div style=&quot;&quot;&gt;&lt;div style=&quot;&quot;&gt;&lt;div&gt;-&amp;nbsp;&lt;span style=&quot;background-color: initial;&quot;&gt;* PAN (NUMERO DE TARJETA)&lt;/span&gt;&lt;/div&gt;&lt;div&gt;- CLIENTE&lt;span style=&quot;white-space:pre&quot;&gt;&#x9;&lt;/span&gt;(NUMERO DE CLIENTE)&lt;/div&gt;&lt;div&gt;- CODPART (CODIGO DE PARTICIPA)&lt;/div&gt;&lt;div&gt;- ORDPART (ORDEN DE PARTICIPAA)&lt;/div&gt;&lt;div&gt;- CODENT (ENTIDAD)&lt;/div&gt;&lt;div&gt;- CODOFI (SUCURSAL CTA CHQ)&lt;/div&gt;&lt;div&gt;- CUENTA (CUENTA CHEQUES)&lt;br&gt;&lt;/div&gt;&lt;/div&gt;&lt;/div&gt;&lt;/font&gt;&lt;/div&gt;" style="text;html=1;strokeColor=#000000;fillColor=none;align=left;verticalAlign=top;whiteSpace=wrap;rounded=0;fontSize=12;" parent="1" vertex="1">
          <mxGeometry x="1028" y="9260" width="274" height="198" as="geometry" />
        </mxCell>
        <mxCell id="nctrB8vf493KiRFq7X1_-139" value="LMCH" style="rounded=0;whiteSpace=wrap;html=1;fontSize=14;fontStyle=1;verticalAlign=top;fillColor=#EEEEEE;strokeColor=none;" parent="1" vertex="1">
          <mxGeometry x="1028.5" y="8930" width="274" height="39" as="geometry" />
        </mxCell>
        <mxCell id="nctrB8vf493KiRFq7X1_-140" value="&lt;div style=&quot;&quot;&gt;&lt;b style=&quot;&quot;&gt;&lt;font style=&quot;font-size: 12px;&quot;&gt;Campos&lt;/font&gt;&lt;/b&gt;&lt;/div&gt;&lt;div style=&quot;&quot;&gt;&lt;b style=&quot;&quot;&gt;&lt;font style=&quot;font-size: 12px;&quot;&gt;&lt;br&gt;&lt;/font&gt;&lt;/b&gt;&lt;/div&gt;&lt;div style=&quot;&quot;&gt;&lt;font style=&quot;&quot;&gt;&lt;div style=&quot;&quot;&gt;&lt;div style=&quot;font-size: 11px;&quot;&gt;&lt;div&gt;&lt;div&gt;&lt;span style=&quot;background-color: initial;&quot;&gt;- * NUMPANX (NUMERO DEL PAN)&lt;/span&gt;&lt;br&gt;&lt;/div&gt;&lt;div&gt;- CODIDIO (IDIOMA)&lt;/div&gt;&lt;div&gt;- DESIDIO (DESCRIPCION IDIOMA)&lt;/div&gt;&lt;div&gt;- CODPAIS (CODIGO DEL PAIS)&lt;/div&gt;&lt;div&gt;- DESPAIS (DESCRIPCION DEL PAIS)&lt;/div&gt;&lt;div&gt;- CODMARC (CODIGO DE MARCA)&lt;/div&gt;&lt;div&gt;- DESMARC (DESCRIPCION MARCA)&lt;/div&gt;&lt;div&gt;- TIPTARJ (TIPO DE TARJETA)&lt;/div&gt;&lt;div&gt;- DESTARJ (DESCRIPCION TP TARJE)&lt;/div&gt;&lt;div&gt;- ADICIO1 (ADICIONAL 1)&lt;/div&gt;&lt;div&gt;- ADICIO2 ADICIONAL 2)&lt;/div&gt;&lt;/div&gt;&lt;/div&gt;&lt;/div&gt;&lt;/font&gt;&lt;/div&gt;" style="text;html=1;strokeColor=#000000;fillColor=none;align=left;verticalAlign=top;whiteSpace=wrap;rounded=0;fontSize=12;" parent="1" vertex="1">
          <mxGeometry x="1028.5" y="8970" width="274" height="198" as="geometry" />
        </mxCell>
        <mxCell id="nctrB8vf493KiRFq7X1_-141" value="&lt;div style=&quot;font-size: 13px;&quot;&gt;&lt;div&gt;&lt;br&gt;&lt;/div&gt;&lt;/div&gt;" style="text;html=1;strokeColor=#000000;fillColor=none;align=left;verticalAlign=top;whiteSpace=wrap;rounded=0;fontSize=12;strokeWidth=2;fontColor=#000000;" parent="1" vertex="1">
          <mxGeometry x="41.75" y="8903" width="440" height="587" as="geometry" />
        </mxCell>
        <mxCell id="nctrB8vf493KiRFq7X1_-142" value="&lt;div style=&quot;text-align: justify;&quot;&gt;&lt;b style=&quot;font-size: 12px;&quot;&gt;Funcionalidad:&lt;/b&gt;&lt;span style=&quot;font-size: 12px;&quot;&gt;&lt;span style=&quot;&quot;&gt;&amp;nbsp;&lt;/span&gt;&lt;/span&gt;&lt;span style=&quot;background-color: initial;&quot;&gt;Consulta de datos de tarjetas del cliente desde ATM Santander.&lt;/span&gt;&lt;/div&gt;&lt;div style=&quot;text-align: justify;&quot;&gt;&lt;span style=&quot;background-color: initial;&quot;&gt;&lt;br&gt;&lt;/span&gt;&lt;/div&gt;&lt;div style=&quot;text-align: justify;&quot;&gt;&lt;span style=&quot;background-color: initial;&quot;&gt;COMO&amp;nbsp; canal de cajeros automáticos QUIERO consultar la información de la tarjeta física de un cliente que ingrese su dispositivo (Tarjeta) al medio ATM.PARA validar la identidad del usuario y cobro o excepción de comisión por uso del ATM.&lt;br&gt;&lt;/span&gt;&lt;/div&gt;&lt;div style=&quot;text-align: justify;&quot;&gt;&lt;span style=&quot;background-color: initial;&quot;&gt;&lt;br&gt;&lt;/span&gt;&lt;/div&gt;&lt;div style=&quot;font-size: 12px;&quot;&gt;&lt;b&gt;Alcance&lt;/b&gt;: La funcionalidad aplica para:&lt;/div&gt;&lt;div style=&quot;font-size: 12px;&quot;&gt;&lt;ul&gt;&lt;li&gt;&lt;span style=&quot;background-color: initial;&quot;&gt;Tarjeta de débito (TDD)&amp;nbsp;de Clientes con Cuentas Aperturadas.&lt;/span&gt;&lt;/li&gt;&lt;li style=&quot;text-align: justify;&quot;&gt;&lt;span style=&quot;background-color: initial;&quot;&gt;Tarjeta de débito (TDD) así como las cuentas de cheques asociadas a estas&lt;/span&gt;&lt;br&gt;&lt;/li&gt;&lt;li&gt;Tarjeta de débito (TDD) que estén o no migradas a la Plataforma de PLARD CLOUD / NO PAMPA&lt;/li&gt;&lt;li&gt;&lt;span style=&quot;background-color: initial;&quot;&gt;PLARD MVP 2 (Minimum Vialable Product)&lt;/span&gt;&lt;/li&gt;&lt;/ul&gt;&lt;/div&gt;&lt;div&gt;&lt;span style=&quot;background-color: initial;&quot;&gt;&lt;div&gt;&lt;b&gt;&lt;font face=&quot;Helvetica&quot; style=&quot;font-size: 12px;&quot;&gt;Precondición&amp;nbsp;&lt;/font&gt;&lt;/b&gt;&lt;/div&gt;&lt;div&gt;&lt;ul type=&quot;disc&quot; style=&quot;margin-top:0cm&quot;&gt;&lt;li style=&quot;margin-left:-18.0pt;mso-list:l0 level1 lfo1&quot; class=&quot;Default&quot;&gt;&lt;span style=&quot;font-size:8.0pt;font-family:&amp;quot;Calibri&amp;quot;,sans-serif;mso-fareast-font-family:&lt;br/&gt;Calibri;mso-fareast-theme-font:minor-latin;mso-ligatures:standardcontextual;&lt;br/&gt;mso-ansi-language:ES-MX;mso-fareast-language:EN-US;mso-bidi-language:AR-SA&quot;&gt;&lt;div style=&quot;font-family: Helvetica; font-size: 12px;&quot;&gt;&lt;span style=&quot;font-size: 8pt; background-color: initial;&quot;&gt;Cliente TDD Santander cuente con una tarjeta física de débito&lt;/span&gt;&lt;/div&gt;&lt;/span&gt;&lt;/li&gt;&lt;li style=&quot;margin-left:-18.0pt;mso-list:l0 level1 lfo1&quot; class=&quot;Default&quot;&gt;&lt;div style=&quot;font-family: Helvetica; font-size: 12px;&quot;&gt;Tarjeta de debito TDD se encentra activa en PLARD&lt;/div&gt;&lt;/li&gt;&lt;li style=&quot;margin-left:-18.0pt;mso-list:l0 level1 lfo1&quot; class=&quot;Default&quot;&gt;&lt;div style=&quot;font-family: Helvetica; font-size: 12px;&quot;&gt;&lt;span style=&quot;font-family: Calibri, sans-serif; font-size: 8pt; background-color: initial;&quot;&gt;Cliente TDD Santander inserta tarjeta física de débito en la ranura ATM Santander.&amp;nbsp;&lt;/span&gt;&lt;/div&gt;&lt;/li&gt;&lt;/ul&gt;&lt;/div&gt;&lt;div&gt;&lt;b&gt;&lt;font face=&quot;Helvetica&quot; style=&quot;font-size: 12px;&quot;&gt;Postcondición&lt;/font&gt;&lt;/b&gt;&lt;/div&gt;&lt;div&gt;&lt;div&gt;&lt;ul style=&quot;margin-top: 0cm;&quot; type=&quot;disc&quot;&gt;&lt;li style=&quot;margin-left: -18pt;&quot; class=&quot;Default&quot;&gt;&lt;span style=&quot;font-size: 8pt;&quot;&gt;ATM Santander valida tarjeta física de débito&lt;/span&gt;&lt;/li&gt;&lt;li style=&quot;margin-left: -18pt;&quot; class=&quot;Default&quot;&gt;&lt;span style=&quot;font-size: 8pt;&quot;&gt;ATM exenta comisión para tarjetas del grupo Santander.&lt;/span&gt;&lt;/li&gt;&lt;li style=&quot;margin-left: -18pt;&quot; class=&quot;Default&quot;&gt;ATM muestra menú de RED para tarjetas externas a Grupo Santander.&lt;/li&gt;&lt;/ul&gt;&lt;/div&gt;&lt;/div&gt;&lt;div&gt;&lt;div&gt;&lt;b&gt;Reglas de Negocio:&lt;/b&gt;&amp;nbsp;&lt;/div&gt;&lt;div&gt;&lt;/div&gt;•&amp;nbsp;&lt;i style=&quot;background-color: initial;&quot;&gt;Reglas&amp;nbsp;para la agrupación de los archivos:&lt;br&gt;&lt;/i&gt;&amp;nbsp; &amp;nbsp;&lt;font style=&quot;font-size: 11px;&quot;&gt;&amp;nbsp;&amp;nbsp; &amp;nbsp; &amp;nbsp; &amp;nbsp;&amp;nbsp;&lt;b style=&quot;border-color: var(--border-color); text-indent: -24px;&quot;&gt;[]&lt;/b&gt;&amp;nbsp;PAN - (Numeración del dispositivo fisico &quot;tarjeta) 16 Dígitos TDD&lt;/font&gt;&lt;div&gt;&amp;nbsp; &amp;nbsp;&lt;font style=&quot;font-size: 11px;&quot;&gt;&amp;nbsp;&amp;nbsp; &amp;nbsp; &amp;nbsp; &amp;nbsp;&amp;nbsp;&lt;b style=&quot;border-color: var(--border-color); text-indent: -24px;&quot;&gt;[]&lt;/b&gt;&amp;nbsp;BIN - 6 Dígitos iniciales del PAN&lt;/font&gt;&lt;div&gt;&lt;font style=&quot;font-size: 11px;&quot;&gt;&amp;nbsp; &amp;nbsp; &amp;nbsp; &amp;nbsp; &amp;nbsp; &amp;nbsp;&amp;nbsp;&lt;b style=&quot;border-color: var(--border-color); text-indent: -24px;&quot;&gt;[]&amp;nbsp;&lt;/b&gt;&lt;/font&gt;&lt;span style=&quot;font-size: 11px; background-color: initial;&quot;&gt;RIB -&amp;nbsp;&amp;nbsp;&lt;/span&gt;&lt;/div&gt;&lt;/div&gt;&lt;/div&gt;&lt;/span&gt;&lt;/div&gt;" style="text;html=1;strokeColor=#EEEEEE;fillColor=none;align=left;verticalAlign=top;whiteSpace=wrap;rounded=0;fontSize=12;" parent="1" vertex="1">
          <mxGeometry x="56.75" y="8911" width="413.25" height="529" as="geometry" />
        </mxCell>
        <mxCell id="f5v7L8ivjZZMmViwqrjB-188" value="API" style="rounded=0;whiteSpace=wrap;html=1;fillColor=#BAC8D3;strokeColor=#BAC8D3;fontColor=#ffffff;fontSize=15;fontStyle=1;align=center;" parent="1" vertex="1">
          <mxGeometry x="1350" y="8859" width="450" height="39" as="geometry" />
        </mxCell>
        <mxCell id="f5v7L8ivjZZMmViwqrjB-191" value="&lt;div style=&quot;font-size: 13px;&quot;&gt;&lt;br&gt;&lt;/div&gt;" style="text;html=1;strokeColor=#000000;fillColor=none;align=left;verticalAlign=top;whiteSpace=wrap;rounded=0;fontSize=12;strokeWidth=2;fontColor=#000000;" parent="1" vertex="1">
          <mxGeometry x="1350" y="8901" width="450" height="589" as="geometry" />
        </mxCell>
        <mxCell id="f5v7L8ivjZZMmViwqrjB-192" value="Request Message: PartyInqByCardNumRq" style="shape=table;startSize=30;container=1;collapsible=0;childLayout=tableLayout;fontStyle=1;fillColor=#EEEEEE;fontColor=#333333;strokeColor=#666666;" parent="1" vertex="1">
          <mxGeometry x="1360" y="8962" width="430" height="230" as="geometry" />
        </mxCell>
        <mxCell id="f5v7L8ivjZZMmViwqrjB-193" value="" style="shape=tableRow;horizontal=0;startSize=0;swimlaneHead=0;swimlaneBody=0;strokeColor=inherit;top=0;left=0;bottom=0;right=0;collapsible=0;dropTarget=0;fillColor=none;points=[[0,0.5],[1,0.5]];portConstraint=eastwest;" parent="f5v7L8ivjZZMmViwqrjB-192" vertex="1">
          <mxGeometry y="30" width="430" height="50" as="geometry" />
        </mxCell>
        <mxCell id="f5v7L8ivjZZMmViwqrjB-194" value="&lt;span style=&quot;text-align: left;&quot;&gt;&lt;b&gt;Nombre del Campo&lt;/b&gt;&lt;/span&gt;" style="shape=partialRectangle;html=1;whiteSpace=wrap;connectable=0;strokeColor=inherit;overflow=hidden;fillColor=none;top=0;left=0;bottom=0;right=0;pointerEvents=1;" parent="f5v7L8ivjZZMmViwqrjB-193" vertex="1">
          <mxGeometry width="72" height="50" as="geometry">
            <mxRectangle width="72" height="50" as="alternateBounds" />
          </mxGeometry>
        </mxCell>
        <mxCell id="f5v7L8ivjZZMmViwqrjB-195" value="&lt;b&gt;Descripción del Campo&lt;/b&gt;" style="shape=partialRectangle;html=1;whiteSpace=wrap;connectable=0;strokeColor=inherit;overflow=hidden;fillColor=none;top=0;left=0;bottom=0;right=0;pointerEvents=1;" parent="f5v7L8ivjZZMmViwqrjB-193" vertex="1">
          <mxGeometry x="72" width="71" height="50" as="geometry">
            <mxRectangle width="71" height="50" as="alternateBounds" />
          </mxGeometry>
        </mxCell>
        <mxCell id="f5v7L8ivjZZMmViwqrjB-196" value="&lt;b&gt;Obligatorio&lt;/b&gt;" style="shape=partialRectangle;html=1;whiteSpace=wrap;connectable=0;strokeColor=inherit;overflow=hidden;fillColor=none;top=0;left=0;bottom=0;right=0;pointerEvents=1;" parent="f5v7L8ivjZZMmViwqrjB-193" vertex="1">
          <mxGeometry x="143" width="72" height="50" as="geometry">
            <mxRectangle width="72" height="50" as="alternateBounds" />
          </mxGeometry>
        </mxCell>
        <mxCell id="f5v7L8ivjZZMmViwqrjB-197" value="&lt;b&gt;Longitud / Formato&lt;/b&gt;" style="shape=partialRectangle;html=1;whiteSpace=wrap;connectable=0;strokeColor=inherit;overflow=hidden;fillColor=none;top=0;left=0;bottom=0;right=0;pointerEvents=1;" parent="f5v7L8ivjZZMmViwqrjB-193" vertex="1">
          <mxGeometry x="215" width="72" height="50" as="geometry">
            <mxRectangle width="72" height="50" as="alternateBounds" />
          </mxGeometry>
        </mxCell>
        <mxCell id="f5v7L8ivjZZMmViwqrjB-198" value="&lt;b&gt;Diccionario&lt;/b&gt;" style="shape=partialRectangle;html=1;whiteSpace=wrap;connectable=0;strokeColor=inherit;overflow=hidden;fillColor=none;top=0;left=0;bottom=0;right=0;pointerEvents=1;" parent="f5v7L8ivjZZMmViwqrjB-193" vertex="1">
          <mxGeometry x="287" width="71" height="50" as="geometry">
            <mxRectangle width="71" height="50" as="alternateBounds" />
          </mxGeometry>
        </mxCell>
        <mxCell id="f5v7L8ivjZZMmViwqrjB-199" value="&lt;b&gt;Service Name&lt;/b&gt;" style="shape=partialRectangle;html=1;whiteSpace=wrap;connectable=0;strokeColor=inherit;overflow=hidden;fillColor=none;top=0;left=0;bottom=0;right=0;pointerEvents=1;" parent="f5v7L8ivjZZMmViwqrjB-193" vertex="1">
          <mxGeometry x="358" width="72" height="50" as="geometry">
            <mxRectangle width="72" height="50" as="alternateBounds" />
          </mxGeometry>
        </mxCell>
        <mxCell id="f5v7L8ivjZZMmViwqrjB-200" value="" style="shape=tableRow;horizontal=0;startSize=0;swimlaneHead=0;swimlaneBody=0;strokeColor=inherit;top=0;left=0;bottom=0;right=0;collapsible=0;dropTarget=0;fillColor=none;points=[[0,0.5],[1,0.5]];portConstraint=eastwest;" parent="f5v7L8ivjZZMmViwqrjB-192" vertex="1">
          <mxGeometry y="80" width="430" height="50" as="geometry" />
        </mxCell>
        <mxCell id="f5v7L8ivjZZMmViwqrjB-201" value="RqUID" style="shape=partialRectangle;html=1;whiteSpace=wrap;connectable=0;strokeColor=inherit;overflow=hidden;fillColor=none;top=0;left=0;bottom=0;right=0;pointerEvents=1;" parent="f5v7L8ivjZZMmViwqrjB-200" vertex="1">
          <mxGeometry width="72" height="50" as="geometry">
            <mxRectangle width="72" height="50" as="alternateBounds" />
          </mxGeometry>
        </mxCell>
        <mxCell id="f5v7L8ivjZZMmViwqrjB-202" value="Request Identifier" style="shape=partialRectangle;html=1;whiteSpace=wrap;connectable=0;strokeColor=inherit;overflow=hidden;fillColor=none;top=0;left=0;bottom=0;right=0;pointerEvents=1;" parent="f5v7L8ivjZZMmViwqrjB-200" vertex="1">
          <mxGeometry x="72" width="71" height="50" as="geometry">
            <mxRectangle width="71" height="50" as="alternateBounds" />
          </mxGeometry>
        </mxCell>
        <mxCell id="f5v7L8ivjZZMmViwqrjB-203" value="NO" style="shape=partialRectangle;html=1;whiteSpace=wrap;connectable=0;strokeColor=inherit;overflow=hidden;fillColor=none;top=0;left=0;bottom=0;right=0;pointerEvents=1;" parent="f5v7L8ivjZZMmViwqrjB-200" vertex="1">
          <mxGeometry x="143" width="72" height="50" as="geometry">
            <mxRectangle width="72" height="50" as="alternateBounds" />
          </mxGeometry>
        </mxCell>
        <mxCell id="f5v7L8ivjZZMmViwqrjB-204" value="N/A / UUID" style="shape=partialRectangle;html=1;whiteSpace=wrap;connectable=0;strokeColor=inherit;overflow=hidden;fillColor=none;top=0;left=0;bottom=0;right=0;pointerEvents=1;" parent="f5v7L8ivjZZMmViwqrjB-200" vertex="1">
          <mxGeometry x="215" width="72" height="50" as="geometry">
            <mxRectangle width="72" height="50" as="alternateBounds" />
          </mxGeometry>
        </mxCell>
        <mxCell id="f5v7L8ivjZZMmViwqrjB-205" value="SI" style="shape=partialRectangle;html=1;whiteSpace=wrap;connectable=0;strokeColor=inherit;overflow=hidden;fillColor=none;top=0;left=0;bottom=0;right=0;pointerEvents=1;" parent="f5v7L8ivjZZMmViwqrjB-200" vertex="1">
          <mxGeometry x="287" width="71" height="50" as="geometry">
            <mxRectangle width="71" height="50" as="alternateBounds" />
          </mxGeometry>
        </mxCell>
        <mxCell id="f5v7L8ivjZZMmViwqrjB-206" value="CardInquiry" style="shape=partialRectangle;html=1;whiteSpace=wrap;connectable=0;strokeColor=inherit;overflow=hidden;fillColor=none;top=0;left=0;bottom=0;right=0;pointerEvents=1;" parent="f5v7L8ivjZZMmViwqrjB-200" vertex="1">
          <mxGeometry x="358" width="72" height="50" as="geometry">
            <mxRectangle width="72" height="50" as="alternateBounds" />
          </mxGeometry>
        </mxCell>
        <mxCell id="f5v7L8ivjZZMmViwqrjB-207" value="" style="shape=tableRow;horizontal=0;startSize=0;swimlaneHead=0;swimlaneBody=0;strokeColor=inherit;top=0;left=0;bottom=0;right=0;collapsible=0;dropTarget=0;fillColor=none;points=[[0,0.5],[1,0.5]];portConstraint=eastwest;" parent="f5v7L8ivjZZMmViwqrjB-192" vertex="1">
          <mxGeometry y="130" width="430" height="50" as="geometry" />
        </mxCell>
        <mxCell id="f5v7L8ivjZZMmViwqrjB-208" value="MsgRqHdr" style="shape=partialRectangle;html=1;whiteSpace=wrap;connectable=0;strokeColor=inherit;overflow=hidden;fillColor=none;top=0;left=0;bottom=0;right=0;pointerEvents=1;" parent="f5v7L8ivjZZMmViwqrjB-207" vertex="1">
          <mxGeometry width="72" height="50" as="geometry">
            <mxRectangle width="72" height="50" as="alternateBounds" />
          </mxGeometry>
        </mxCell>
        <mxCell id="f5v7L8ivjZZMmViwqrjB-209" value="Message Request Header" style="shape=partialRectangle;html=1;whiteSpace=wrap;connectable=0;strokeColor=inherit;overflow=hidden;fillColor=none;top=0;left=0;bottom=0;right=0;pointerEvents=1;" parent="f5v7L8ivjZZMmViwqrjB-207" vertex="1">
          <mxGeometry x="72" width="71" height="50" as="geometry">
            <mxRectangle width="71" height="50" as="alternateBounds" />
          </mxGeometry>
        </mxCell>
        <mxCell id="f5v7L8ivjZZMmViwqrjB-210" value="NO" style="shape=partialRectangle;html=1;whiteSpace=wrap;connectable=0;strokeColor=inherit;overflow=hidden;fillColor=none;top=0;left=0;bottom=0;right=0;pointerEvents=1;" parent="f5v7L8ivjZZMmViwqrjB-207" vertex="1">
          <mxGeometry x="143" width="72" height="50" as="geometry">
            <mxRectangle width="72" height="50" as="alternateBounds" />
          </mxGeometry>
        </mxCell>
        <mxCell id="f5v7L8ivjZZMmViwqrjB-211" value="N/A / Aggregate" style="shape=partialRectangle;html=1;whiteSpace=wrap;connectable=0;strokeColor=inherit;overflow=hidden;fillColor=none;top=0;left=0;bottom=0;right=0;pointerEvents=1;" parent="f5v7L8ivjZZMmViwqrjB-207" vertex="1">
          <mxGeometry x="215" width="72" height="50" as="geometry">
            <mxRectangle width="72" height="50" as="alternateBounds" />
          </mxGeometry>
        </mxCell>
        <mxCell id="f5v7L8ivjZZMmViwqrjB-212" value="SI" style="shape=partialRectangle;html=1;whiteSpace=wrap;connectable=0;strokeColor=inherit;overflow=hidden;fillColor=none;top=0;left=0;bottom=0;right=0;pointerEvents=1;" parent="f5v7L8ivjZZMmViwqrjB-207" vertex="1">
          <mxGeometry x="287" width="71" height="50" as="geometry">
            <mxRectangle width="71" height="50" as="alternateBounds" />
          </mxGeometry>
        </mxCell>
        <mxCell id="f5v7L8ivjZZMmViwqrjB-213" value="CardInquiry" style="shape=partialRectangle;html=1;whiteSpace=wrap;connectable=0;strokeColor=inherit;overflow=hidden;fillColor=none;top=0;left=0;bottom=0;right=0;pointerEvents=1;" parent="f5v7L8ivjZZMmViwqrjB-207" vertex="1">
          <mxGeometry x="358" width="72" height="50" as="geometry">
            <mxRectangle width="72" height="50" as="alternateBounds" />
          </mxGeometry>
        </mxCell>
        <mxCell id="f5v7L8ivjZZMmViwqrjB-214" value="" style="shape=tableRow;horizontal=0;startSize=0;swimlaneHead=0;swimlaneBody=0;strokeColor=inherit;top=0;left=0;bottom=0;right=0;collapsible=0;dropTarget=0;fillColor=none;points=[[0,0.5],[1,0.5]];portConstraint=eastwest;" parent="f5v7L8ivjZZMmViwqrjB-192" vertex="1">
          <mxGeometry y="180" width="430" height="50" as="geometry" />
        </mxCell>
        <mxCell id="f5v7L8ivjZZMmViwqrjB-215" value="CardSel" style="shape=partialRectangle;html=1;whiteSpace=wrap;connectable=0;strokeColor=inherit;overflow=hidden;fillColor=none;top=0;left=0;bottom=0;right=0;pointerEvents=1;" parent="f5v7L8ivjZZMmViwqrjB-214" vertex="1">
          <mxGeometry width="72" height="50" as="geometry">
            <mxRectangle width="72" height="50" as="alternateBounds" />
          </mxGeometry>
        </mxCell>
        <mxCell id="f5v7L8ivjZZMmViwqrjB-216" value="Card Selection Aggregate" style="shape=partialRectangle;html=1;whiteSpace=wrap;connectable=0;strokeColor=inherit;overflow=hidden;fillColor=none;top=0;left=0;bottom=0;right=0;pointerEvents=1;" parent="f5v7L8ivjZZMmViwqrjB-214" vertex="1">
          <mxGeometry x="72" width="71" height="50" as="geometry">
            <mxRectangle width="71" height="50" as="alternateBounds" />
          </mxGeometry>
        </mxCell>
        <mxCell id="f5v7L8ivjZZMmViwqrjB-217" value="SI" style="shape=partialRectangle;html=1;whiteSpace=wrap;connectable=0;strokeColor=inherit;overflow=hidden;fillColor=none;top=0;left=0;bottom=0;right=0;pointerEvents=1;" parent="f5v7L8ivjZZMmViwqrjB-214" vertex="1">
          <mxGeometry x="143" width="72" height="50" as="geometry">
            <mxRectangle width="72" height="50" as="alternateBounds" />
          </mxGeometry>
        </mxCell>
        <mxCell id="f5v7L8ivjZZMmViwqrjB-218" value="N/A / Aggregate" style="shape=partialRectangle;html=1;whiteSpace=wrap;connectable=0;strokeColor=inherit;overflow=hidden;fillColor=none;top=0;left=0;bottom=0;right=0;pointerEvents=1;" parent="f5v7L8ivjZZMmViwqrjB-214" vertex="1">
          <mxGeometry x="215" width="72" height="50" as="geometry">
            <mxRectangle width="72" height="50" as="alternateBounds" />
          </mxGeometry>
        </mxCell>
        <mxCell id="f5v7L8ivjZZMmViwqrjB-219" value="SI" style="shape=partialRectangle;html=1;whiteSpace=wrap;connectable=0;strokeColor=inherit;overflow=hidden;fillColor=none;top=0;left=0;bottom=0;right=0;pointerEvents=1;" parent="f5v7L8ivjZZMmViwqrjB-214" vertex="1">
          <mxGeometry x="287" width="71" height="50" as="geometry">
            <mxRectangle width="71" height="50" as="alternateBounds" />
          </mxGeometry>
        </mxCell>
        <mxCell id="f5v7L8ivjZZMmViwqrjB-220" value="CardInquiry" style="shape=partialRectangle;html=1;whiteSpace=wrap;connectable=0;strokeColor=inherit;overflow=hidden;fillColor=none;top=0;left=0;bottom=0;right=0;pointerEvents=1;" parent="f5v7L8ivjZZMmViwqrjB-214" vertex="1">
          <mxGeometry x="358" width="72" height="50" as="geometry">
            <mxRectangle width="72" height="50" as="alternateBounds" />
          </mxGeometry>
        </mxCell>
        <mxCell id="f5v7L8ivjZZMmViwqrjB-221" value="Request Message: PartyInqByCardNumRq" style="shape=table;startSize=30;container=1;collapsible=0;childLayout=tableLayout;fontStyle=1;fillColor=#EEEEEE;fontColor=#333333;strokeColor=#666666;" parent="1" vertex="1">
          <mxGeometry x="1360" y="9192" width="430" height="278" as="geometry" />
        </mxCell>
        <mxCell id="f5v7L8ivjZZMmViwqrjB-222" value="" style="shape=tableRow;horizontal=0;startSize=0;swimlaneHead=0;swimlaneBody=0;strokeColor=inherit;top=0;left=0;bottom=0;right=0;collapsible=0;dropTarget=0;fillColor=none;points=[[0,0.5],[1,0.5]];portConstraint=eastwest;" parent="f5v7L8ivjZZMmViwqrjB-221" vertex="1">
          <mxGeometry y="30" width="430" height="50" as="geometry" />
        </mxCell>
        <mxCell id="f5v7L8ivjZZMmViwqrjB-223" value="&lt;span style=&quot;text-align: left;&quot;&gt;&lt;b&gt;Nombre del Campo&lt;/b&gt;&lt;/span&gt;" style="shape=partialRectangle;html=1;whiteSpace=wrap;connectable=0;strokeColor=inherit;overflow=hidden;fillColor=none;top=0;left=0;bottom=0;right=0;pointerEvents=1;" parent="f5v7L8ivjZZMmViwqrjB-222" vertex="1">
          <mxGeometry width="72" height="50" as="geometry">
            <mxRectangle width="72" height="50" as="alternateBounds" />
          </mxGeometry>
        </mxCell>
        <mxCell id="f5v7L8ivjZZMmViwqrjB-224" value="&lt;b&gt;Descripción del Campo&lt;/b&gt;" style="shape=partialRectangle;html=1;whiteSpace=wrap;connectable=0;strokeColor=inherit;overflow=hidden;fillColor=none;top=0;left=0;bottom=0;right=0;pointerEvents=1;" parent="f5v7L8ivjZZMmViwqrjB-222" vertex="1">
          <mxGeometry x="72" width="71" height="50" as="geometry">
            <mxRectangle width="71" height="50" as="alternateBounds" />
          </mxGeometry>
        </mxCell>
        <mxCell id="f5v7L8ivjZZMmViwqrjB-225" value="&lt;b&gt;Obligatorio&lt;/b&gt;" style="shape=partialRectangle;html=1;whiteSpace=wrap;connectable=0;strokeColor=inherit;overflow=hidden;fillColor=none;top=0;left=0;bottom=0;right=0;pointerEvents=1;" parent="f5v7L8ivjZZMmViwqrjB-222" vertex="1">
          <mxGeometry x="143" width="72" height="50" as="geometry">
            <mxRectangle width="72" height="50" as="alternateBounds" />
          </mxGeometry>
        </mxCell>
        <mxCell id="f5v7L8ivjZZMmViwqrjB-226" value="&lt;b&gt;Longitud / Formato&lt;/b&gt;" style="shape=partialRectangle;html=1;whiteSpace=wrap;connectable=0;strokeColor=inherit;overflow=hidden;fillColor=none;top=0;left=0;bottom=0;right=0;pointerEvents=1;" parent="f5v7L8ivjZZMmViwqrjB-222" vertex="1">
          <mxGeometry x="215" width="72" height="50" as="geometry">
            <mxRectangle width="72" height="50" as="alternateBounds" />
          </mxGeometry>
        </mxCell>
        <mxCell id="f5v7L8ivjZZMmViwqrjB-227" value="&lt;b&gt;Diccionario&lt;/b&gt;" style="shape=partialRectangle;html=1;whiteSpace=wrap;connectable=0;strokeColor=inherit;overflow=hidden;fillColor=none;top=0;left=0;bottom=0;right=0;pointerEvents=1;" parent="f5v7L8ivjZZMmViwqrjB-222" vertex="1">
          <mxGeometry x="287" width="71" height="50" as="geometry">
            <mxRectangle width="71" height="50" as="alternateBounds" />
          </mxGeometry>
        </mxCell>
        <mxCell id="f5v7L8ivjZZMmViwqrjB-228" value="&lt;b&gt;Service Name&lt;/b&gt;" style="shape=partialRectangle;html=1;whiteSpace=wrap;connectable=0;strokeColor=inherit;overflow=hidden;fillColor=none;top=0;left=0;bottom=0;right=0;pointerEvents=1;" parent="f5v7L8ivjZZMmViwqrjB-222" vertex="1">
          <mxGeometry x="358" width="72" height="50" as="geometry">
            <mxRectangle width="72" height="50" as="alternateBounds" />
          </mxGeometry>
        </mxCell>
        <mxCell id="f5v7L8ivjZZMmViwqrjB-229" value="" style="shape=tableRow;horizontal=0;startSize=0;swimlaneHead=0;swimlaneBody=0;strokeColor=inherit;top=0;left=0;bottom=0;right=0;collapsible=0;dropTarget=0;fillColor=none;points=[[0,0.5],[1,0.5]];portConstraint=eastwest;" parent="f5v7L8ivjZZMmViwqrjB-221" vertex="1">
          <mxGeometry y="80" width="430" height="50" as="geometry" />
        </mxCell>
        <mxCell id="f5v7L8ivjZZMmViwqrjB-230" value="Status" style="shape=partialRectangle;html=1;whiteSpace=wrap;connectable=0;strokeColor=inherit;overflow=hidden;fillColor=none;top=0;left=0;bottom=0;right=0;pointerEvents=1;" parent="f5v7L8ivjZZMmViwqrjB-229" vertex="1">
          <mxGeometry width="72" height="50" as="geometry">
            <mxRectangle width="72" height="50" as="alternateBounds" />
          </mxGeometry>
        </mxCell>
        <mxCell id="f5v7L8ivjZZMmViwqrjB-231" value="Response Status" style="shape=partialRectangle;html=1;whiteSpace=wrap;connectable=0;strokeColor=inherit;overflow=hidden;fillColor=none;top=0;left=0;bottom=0;right=0;pointerEvents=1;" parent="f5v7L8ivjZZMmViwqrjB-229" vertex="1">
          <mxGeometry x="72" width="71" height="50" as="geometry">
            <mxRectangle width="71" height="50" as="alternateBounds" />
          </mxGeometry>
        </mxCell>
        <mxCell id="f5v7L8ivjZZMmViwqrjB-232" value="SI" style="shape=partialRectangle;html=1;whiteSpace=wrap;connectable=0;strokeColor=inherit;overflow=hidden;fillColor=none;top=0;left=0;bottom=0;right=0;pointerEvents=1;" parent="f5v7L8ivjZZMmViwqrjB-229" vertex="1">
          <mxGeometry x="143" width="72" height="50" as="geometry">
            <mxRectangle width="72" height="50" as="alternateBounds" />
          </mxGeometry>
        </mxCell>
        <mxCell id="f5v7L8ivjZZMmViwqrjB-233" value="N/A / Aggregate" style="shape=partialRectangle;html=1;whiteSpace=wrap;connectable=0;strokeColor=inherit;overflow=hidden;fillColor=none;top=0;left=0;bottom=0;right=0;pointerEvents=1;" parent="f5v7L8ivjZZMmViwqrjB-229" vertex="1">
          <mxGeometry x="215" width="72" height="50" as="geometry">
            <mxRectangle width="72" height="50" as="alternateBounds" />
          </mxGeometry>
        </mxCell>
        <mxCell id="f5v7L8ivjZZMmViwqrjB-234" value="SI" style="shape=partialRectangle;html=1;whiteSpace=wrap;connectable=0;strokeColor=inherit;overflow=hidden;fillColor=none;top=0;left=0;bottom=0;right=0;pointerEvents=1;" parent="f5v7L8ivjZZMmViwqrjB-229" vertex="1">
          <mxGeometry x="287" width="71" height="50" as="geometry">
            <mxRectangle width="71" height="50" as="alternateBounds" />
          </mxGeometry>
        </mxCell>
        <mxCell id="f5v7L8ivjZZMmViwqrjB-235" value="CardInquiry" style="shape=partialRectangle;html=1;whiteSpace=wrap;connectable=0;strokeColor=inherit;overflow=hidden;fillColor=none;top=0;left=0;bottom=0;right=0;pointerEvents=1;" parent="f5v7L8ivjZZMmViwqrjB-229" vertex="1">
          <mxGeometry x="358" width="72" height="50" as="geometry">
            <mxRectangle width="72" height="50" as="alternateBounds" />
          </mxGeometry>
        </mxCell>
        <mxCell id="f5v7L8ivjZZMmViwqrjB-236" value="" style="shape=tableRow;horizontal=0;startSize=0;swimlaneHead=0;swimlaneBody=0;strokeColor=inherit;top=0;left=0;bottom=0;right=0;collapsible=0;dropTarget=0;fillColor=none;points=[[0,0.5],[1,0.5]];portConstraint=eastwest;" parent="f5v7L8ivjZZMmViwqrjB-221" vertex="1">
          <mxGeometry y="130" width="430" height="50" as="geometry" />
        </mxCell>
        <mxCell id="f5v7L8ivjZZMmViwqrjB-237" value="RqUID" style="shape=partialRectangle;html=1;whiteSpace=wrap;connectable=0;strokeColor=inherit;overflow=hidden;fillColor=none;top=0;left=0;bottom=0;right=0;pointerEvents=1;" parent="f5v7L8ivjZZMmViwqrjB-236" vertex="1">
          <mxGeometry width="72" height="50" as="geometry">
            <mxRectangle width="72" height="50" as="alternateBounds" />
          </mxGeometry>
        </mxCell>
        <mxCell id="f5v7L8ivjZZMmViwqrjB-238" value="Request Identifier" style="shape=partialRectangle;html=1;whiteSpace=wrap;connectable=0;strokeColor=inherit;overflow=hidden;fillColor=none;top=0;left=0;bottom=0;right=0;pointerEvents=1;" parent="f5v7L8ivjZZMmViwqrjB-236" vertex="1">
          <mxGeometry x="72" width="71" height="50" as="geometry">
            <mxRectangle width="71" height="50" as="alternateBounds" />
          </mxGeometry>
        </mxCell>
        <mxCell id="f5v7L8ivjZZMmViwqrjB-239" value="NO" style="shape=partialRectangle;html=1;whiteSpace=wrap;connectable=0;strokeColor=inherit;overflow=hidden;fillColor=none;top=0;left=0;bottom=0;right=0;pointerEvents=1;" parent="f5v7L8ivjZZMmViwqrjB-236" vertex="1">
          <mxGeometry x="143" width="72" height="50" as="geometry">
            <mxRectangle width="72" height="50" as="alternateBounds" />
          </mxGeometry>
        </mxCell>
        <mxCell id="f5v7L8ivjZZMmViwqrjB-240" value="N/A / UUID" style="shape=partialRectangle;html=1;whiteSpace=wrap;connectable=0;strokeColor=inherit;overflow=hidden;fillColor=none;top=0;left=0;bottom=0;right=0;pointerEvents=1;" parent="f5v7L8ivjZZMmViwqrjB-236" vertex="1">
          <mxGeometry x="215" width="72" height="50" as="geometry">
            <mxRectangle width="72" height="50" as="alternateBounds" />
          </mxGeometry>
        </mxCell>
        <mxCell id="f5v7L8ivjZZMmViwqrjB-241" value="SI" style="shape=partialRectangle;html=1;whiteSpace=wrap;connectable=0;strokeColor=inherit;overflow=hidden;fillColor=none;top=0;left=0;bottom=0;right=0;pointerEvents=1;" parent="f5v7L8ivjZZMmViwqrjB-236" vertex="1">
          <mxGeometry x="287" width="71" height="50" as="geometry">
            <mxRectangle width="71" height="50" as="alternateBounds" />
          </mxGeometry>
        </mxCell>
        <mxCell id="f5v7L8ivjZZMmViwqrjB-242" value="CardInquiry" style="shape=partialRectangle;html=1;whiteSpace=wrap;connectable=0;strokeColor=inherit;overflow=hidden;fillColor=none;top=0;left=0;bottom=0;right=0;pointerEvents=1;" parent="f5v7L8ivjZZMmViwqrjB-236" vertex="1">
          <mxGeometry x="358" width="72" height="50" as="geometry">
            <mxRectangle width="72" height="50" as="alternateBounds" />
          </mxGeometry>
        </mxCell>
        <mxCell id="f5v7L8ivjZZMmViwqrjB-243" value="" style="shape=tableRow;horizontal=0;startSize=0;swimlaneHead=0;swimlaneBody=0;strokeColor=inherit;top=0;left=0;bottom=0;right=0;collapsible=0;dropTarget=0;fillColor=none;points=[[0,0.5],[1,0.5]];portConstraint=eastwest;" parent="f5v7L8ivjZZMmViwqrjB-221" vertex="1">
          <mxGeometry y="180" width="430" height="48" as="geometry" />
        </mxCell>
        <mxCell id="f5v7L8ivjZZMmViwqrjB-244" value="MsgRsHdr" style="shape=partialRectangle;html=1;whiteSpace=wrap;connectable=0;strokeColor=inherit;overflow=hidden;fillColor=none;top=0;left=0;bottom=0;right=0;pointerEvents=1;" parent="f5v7L8ivjZZMmViwqrjB-243" vertex="1">
          <mxGeometry width="72" height="48" as="geometry">
            <mxRectangle width="72" height="48" as="alternateBounds" />
          </mxGeometry>
        </mxCell>
        <mxCell id="f5v7L8ivjZZMmViwqrjB-245" value="Message Response Header" style="shape=partialRectangle;html=1;whiteSpace=wrap;connectable=0;strokeColor=inherit;overflow=hidden;fillColor=none;top=0;left=0;bottom=0;right=0;pointerEvents=1;" parent="f5v7L8ivjZZMmViwqrjB-243" vertex="1">
          <mxGeometry x="72" width="71" height="48" as="geometry">
            <mxRectangle width="71" height="48" as="alternateBounds" />
          </mxGeometry>
        </mxCell>
        <mxCell id="f5v7L8ivjZZMmViwqrjB-246" value="NO" style="shape=partialRectangle;html=1;whiteSpace=wrap;connectable=0;strokeColor=inherit;overflow=hidden;fillColor=none;top=0;left=0;bottom=0;right=0;pointerEvents=1;" parent="f5v7L8ivjZZMmViwqrjB-243" vertex="1">
          <mxGeometry x="143" width="72" height="48" as="geometry">
            <mxRectangle width="72" height="48" as="alternateBounds" />
          </mxGeometry>
        </mxCell>
        <mxCell id="f5v7L8ivjZZMmViwqrjB-247" value="N/A / Aggregate" style="shape=partialRectangle;html=1;whiteSpace=wrap;connectable=0;strokeColor=inherit;overflow=hidden;fillColor=none;top=0;left=0;bottom=0;right=0;pointerEvents=1;" parent="f5v7L8ivjZZMmViwqrjB-243" vertex="1">
          <mxGeometry x="215" width="72" height="48" as="geometry">
            <mxRectangle width="72" height="48" as="alternateBounds" />
          </mxGeometry>
        </mxCell>
        <mxCell id="f5v7L8ivjZZMmViwqrjB-248" value="SI" style="shape=partialRectangle;html=1;whiteSpace=wrap;connectable=0;strokeColor=inherit;overflow=hidden;fillColor=none;top=0;left=0;bottom=0;right=0;pointerEvents=1;" parent="f5v7L8ivjZZMmViwqrjB-243" vertex="1">
          <mxGeometry x="287" width="71" height="48" as="geometry">
            <mxRectangle width="71" height="48" as="alternateBounds" />
          </mxGeometry>
        </mxCell>
        <mxCell id="f5v7L8ivjZZMmViwqrjB-249" value="CardInquiry" style="shape=partialRectangle;html=1;whiteSpace=wrap;connectable=0;strokeColor=inherit;overflow=hidden;fillColor=none;top=0;left=0;bottom=0;right=0;pointerEvents=1;" parent="f5v7L8ivjZZMmViwqrjB-243" vertex="1">
          <mxGeometry x="358" width="72" height="48" as="geometry">
            <mxRectangle width="72" height="48" as="alternateBounds" />
          </mxGeometry>
        </mxCell>
        <mxCell id="f5v7L8ivjZZMmViwqrjB-250" style="shape=tableRow;horizontal=0;startSize=0;swimlaneHead=0;swimlaneBody=0;strokeColor=inherit;top=0;left=0;bottom=0;right=0;collapsible=0;dropTarget=0;fillColor=none;points=[[0,0.5],[1,0.5]];portConstraint=eastwest;" parent="f5v7L8ivjZZMmViwqrjB-221" vertex="1">
          <mxGeometry y="228" width="430" height="50" as="geometry" />
        </mxCell>
        <mxCell id="f5v7L8ivjZZMmViwqrjB-251" value="CardRec" style="shape=partialRectangle;html=1;whiteSpace=wrap;connectable=0;strokeColor=inherit;overflow=hidden;fillColor=none;top=0;left=0;bottom=0;right=0;pointerEvents=1;" parent="f5v7L8ivjZZMmViwqrjB-250" vertex="1">
          <mxGeometry width="72" height="50" as="geometry">
            <mxRectangle width="72" height="50" as="alternateBounds" />
          </mxGeometry>
        </mxCell>
        <mxCell id="f5v7L8ivjZZMmViwqrjB-252" value="Card Record Aggregate" style="shape=partialRectangle;html=1;whiteSpace=wrap;connectable=0;strokeColor=inherit;overflow=hidden;fillColor=none;top=0;left=0;bottom=0;right=0;pointerEvents=1;" parent="f5v7L8ivjZZMmViwqrjB-250" vertex="1">
          <mxGeometry x="72" width="71" height="50" as="geometry">
            <mxRectangle width="71" height="50" as="alternateBounds" />
          </mxGeometry>
        </mxCell>
        <mxCell id="f5v7L8ivjZZMmViwqrjB-253" value="NO" style="shape=partialRectangle;html=1;whiteSpace=wrap;connectable=0;strokeColor=inherit;overflow=hidden;fillColor=none;top=0;left=0;bottom=0;right=0;pointerEvents=1;" parent="f5v7L8ivjZZMmViwqrjB-250" vertex="1">
          <mxGeometry x="143" width="72" height="50" as="geometry">
            <mxRectangle width="72" height="50" as="alternateBounds" />
          </mxGeometry>
        </mxCell>
        <mxCell id="f5v7L8ivjZZMmViwqrjB-254" value="N/A / Aggregate" style="shape=partialRectangle;html=1;whiteSpace=wrap;connectable=0;strokeColor=inherit;overflow=hidden;fillColor=none;top=0;left=0;bottom=0;right=0;pointerEvents=1;" parent="f5v7L8ivjZZMmViwqrjB-250" vertex="1">
          <mxGeometry x="215" width="72" height="50" as="geometry">
            <mxRectangle width="72" height="50" as="alternateBounds" />
          </mxGeometry>
        </mxCell>
        <mxCell id="f5v7L8ivjZZMmViwqrjB-255" value="SI" style="shape=partialRectangle;html=1;whiteSpace=wrap;connectable=0;strokeColor=inherit;overflow=hidden;fillColor=none;top=0;left=0;bottom=0;right=0;pointerEvents=1;" parent="f5v7L8ivjZZMmViwqrjB-250" vertex="1">
          <mxGeometry x="287" width="71" height="50" as="geometry">
            <mxRectangle width="71" height="50" as="alternateBounds" />
          </mxGeometry>
        </mxCell>
        <mxCell id="f5v7L8ivjZZMmViwqrjB-256" value="adada" style="shape=partialRectangle;html=1;whiteSpace=wrap;connectable=0;strokeColor=inherit;overflow=hidden;fillColor=none;top=0;left=0;bottom=0;right=0;pointerEvents=1;" parent="f5v7L8ivjZZMmViwqrjB-250" vertex="1">
          <mxGeometry x="358" width="72" height="50" as="geometry">
            <mxRectangle width="72" height="50" as="alternateBounds" />
          </mxGeometry>
        </mxCell>
        <mxCell id="f5v7L8ivjZZMmViwqrjB-257" value="&lt;div style=&quot;font-size: 9px;&quot;&gt;&lt;ul&gt;&lt;li&gt;&lt;font style=&quot;background-color: initial;&quot; color=&quot;#000000&quot;&gt;BIAN&lt;/font&gt;&lt;font style=&quot;background-color: initial; font-weight: normal;&quot; color=&quot;#000000&quot;&gt; &lt;span style=&quot;white-space: pre;&quot;&gt;&#x9;&lt;/span&gt;Operations and Execution&lt;span style=&quot;white-space: pre;&quot;&gt;&#x9;&lt;/span&gt;Product Specific Fulfillment&lt;span style=&quot;white-space: pre;&quot;&gt;&#x9;&lt;/span&gt;Credit/Charge Card&lt;span style=&quot;white-space: pre;&quot;&gt;&#x9;&lt;/span&gt;&lt;/font&gt;&lt;/li&gt;&lt;li style=&quot;text-align: left;&quot;&gt;&lt;font style=&quot;font-size: 9px;&quot; color=&quot;#000000&quot;&gt;API&lt;span style=&quot;font-weight: normal; background-color: initial; white-space: pre;&quot;&gt;&#x9;&lt;/span&gt;&lt;span style=&quot;font-weight: normal; background-color: initial;&quot;&gt;Credit/Charge Card&lt;/span&gt;&lt;span style=&quot;font-weight: normal; background-color: initial; white-space: pre;&quot;&gt;&#x9;&lt;/span&gt;&lt;span style=&quot;font-weight: normal; background-color: initial;&quot;&gt;CardInquiry&lt;/span&gt;&lt;span style=&quot;font-weight: normal; background-color: initial; white-space: pre;&quot;&gt;&#x9;&lt;/span&gt;&lt;span style=&quot;font-weight: normal; background-color: initial;&quot;&gt;PartyInqByCardNum&lt;/span&gt;&lt;span style=&quot;font-weight: normal; background-color: initial; white-space: pre;&quot;&gt;&#x9;&lt;/span&gt;&lt;/font&gt;&lt;/li&gt;&lt;li style=&quot;text-align: left;&quot;&gt;&lt;font style=&quot;font-size: 9px;&quot; color=&quot;#000000&quot;&gt;AaaS&lt;span style=&quot;font-weight: normal; background-color: initial; white-space: pre;&quot;&gt;&#x9;&lt;/span&gt;&lt;span style=&quot;font-weight: normal; background-color: initial;&quot;&gt;mx-opsexec-spec-cards&lt;/span&gt;&lt;/font&gt;&lt;/li&gt;&lt;/ul&gt;&lt;/div&gt;" style="rounded=0;whiteSpace=wrap;html=1;fillColor=#D1D1D1;strokeColor=#BAC8D3;fontColor=#ffffff;fontSize=15;fontStyle=1;align=center;" parent="1" vertex="1">
          <mxGeometry x="1360" y="8902" width="430" height="59" as="geometry" />
        </mxCell>
        <mxCell id="pCUDI1BJ3AaRnasVNfEv-1" style="edgeStyle=orthogonalEdgeStyle;rounded=0;orthogonalLoop=1;jettySize=auto;html=1;exitX=0.5;exitY=1;exitDx=0;exitDy=0;entryX=0.489;entryY=0.795;entryDx=0;entryDy=0;entryPerimeter=0;" edge="1" parent="1" source="f5v7L8ivjZZMmViwqrjB-188" target="f5v7L8ivjZZMmViwqrjB-188">
          <mxGeometry relative="1" as="geometry" />
        </mxCell>
      </root>
    </mxGraphModel>
  </diagram>
</mxfile>
